<svg width="14" height="14" viewBox="0 0 14 14" fill="none" xmlns="http://www.w3.org/2000/svg">
<path d="M5.86667 9H3.66667C2.95942 9 2.28115 9.28095 1.78105 9.78105C1.28095 10.2811 1 10.9594 1 11.6667V13M9 9.33333V8.33333C9 7.97971 9.14048 7.64057 9.39052 7.39052C9.64057 7.14048 9.97971 7 10.3333 7C10.687 7 11.0261 7.14048 11.2761 7.39052C11.5262 7.64057 11.6667 7.97971 11.6667 8.33333V9.33333M8.33333 3.66667C8.33333 5.13943 7.13943 6.33333 5.66667 6.33333C4.19391 6.33333 3 5.13943 3 3.66667C3 2.19391 4.19391 1 5.66667 1C7.13943 1 8.33333 2.19391 8.33333 3.66667ZM8.266 9.66667H12.4007C12.7317 9.66667 13 9.935 13 10.266V12.4007C13 12.7317 12.7317 13 12.4007 13H8.266C7.935 13 7.66667 12.7317 7.66667 12.4007V10.266C7.66667 9.935 7.935 9.66667 8.266 9.66667Z" stroke="black" stroke-linecap="round" stroke-linejoin="round"/>
</svg>
