<svg width="14" height="14" viewBox="0 0 14 14" fill="none" xmlns="http://www.w3.org/2000/svg">
<path d="M8.80416 5.19749L5.20527 8.7978M5.20527 5.19749H5.21127M8.80416 8.7978H8.81016M2.11622 4.96947C2.02867 4.57495 2.04211 4.16471 2.1553 3.77677C2.26849 3.38884 2.47776 3.03577 2.7637 2.75031C3.04964 2.46485 3.40301 2.25624 3.79103 2.14382C4.17905 2.0314 4.58916 2.01882 4.98334 2.10722C5.2003 1.76778 5.49918 1.48843 5.85244 1.29493C6.2057 1.10143 6.60197 1 7.00471 1C7.40746 1 7.80373 1.10143 8.15699 1.29493C8.51025 1.48843 8.80913 1.76778 9.02609 2.10722C9.42087 2.01843 9.83169 2.03096 10.2203 2.14366C10.609 2.25635 10.9628 2.46554 11.2489 2.75177C11.535 3.038 11.7441 3.39198 11.8568 3.78077C11.9694 4.16956 11.982 4.58054 11.8932 4.97547C12.2325 5.19252 12.5118 5.49152 12.7052 5.84492C12.8986 6.19832 13 6.59474 13 6.99765C13 7.40055 12.8986 7.79698 12.7052 8.15038C12.5118 8.50378 12.2325 8.80278 11.8932 9.01982C11.9816 9.41416 11.969 9.82443 11.8566 10.2126C11.7443 10.6008 11.5357 10.9543 11.2504 11.2403C10.965 11.5264 10.6121 11.7357 10.2243 11.849C9.83654 11.9622 9.42645 11.9757 9.03209 11.8881C8.81542 12.2288 8.5163 12.5094 8.16243 12.7037C7.80857 12.8981 7.41141 13 7.00771 13C6.60402 13 6.20686 12.8981 5.85299 12.7037C5.49913 12.5094 5.20001 12.2288 4.98334 11.8881C4.58916 11.9765 4.17905 11.9639 3.79103 11.8515C3.40301 11.7391 3.04964 11.5304 2.7637 11.245C2.47776 10.9595 2.26849 10.6065 2.1553 10.2185C2.04211 9.83059 2.02867 9.42034 2.11622 9.02582C1.7743 8.80935 1.49266 8.50988 1.2975 8.15528C1.10234 7.80067 1 7.40245 1 6.99765C1 6.59285 1.10234 6.19462 1.2975 5.84002C1.49266 5.48541 1.7743 5.18595 2.11622 4.96947Z" stroke="black" stroke-linecap="round" stroke-linejoin="round"/>
</svg>
