<svg width="11" height="11" viewBox="0 0 11 11" fill="none" xmlns="http://www.w3.org/2000/svg">
<path d="M5.26398 1.47203H1.94755C1.69625 1.47203 1.45523 1.57186 1.27753 1.74956C1.09983 1.92726 1 2.16828 1 2.41958V9.05245C1 9.30375 1.09983 9.54477 1.27753 9.72247C1.45523 9.90017 1.69625 10 1.94755 10H8.58042C8.83172 10 9.07273 9.90017 9.25044 9.72247C9.42814 9.54477 9.52797 9.30375 9.52797 9.05245V5.73602M8.28431 1.29437C8.47279 1.10589 8.72842 1 8.99497 1C9.26152 1 9.51715 1.10589 9.70563 1.29437C9.89411 1.48285 10 1.73848 10 2.00503C10 2.27158 9.89411 2.52721 9.70563 2.71569L5.43549 6.98631C5.32299 7.09871 5.18401 7.18099 5.03136 7.22557L3.6702 7.62354C3.62943 7.63543 3.58622 7.63614 3.54508 7.6256C3.50394 7.61506 3.4664 7.59366 3.43637 7.56363C3.40634 7.5336 3.38494 7.49606 3.3744 7.45492C3.36386 7.41378 3.36457 7.37057 3.37646 7.3298L3.77443 5.96864C3.81922 5.81611 3.90166 5.6773 4.01416 5.56498L8.28431 1.29437Z" stroke="#1DAEEF" stroke-linecap="round" stroke-linejoin="round"/>
</svg>
