<?xml version="1.0" encoding="UTF-8"?>
<svg id="_레이어_2" data-name="레이어 2" xmlns="http://www.w3.org/2000/svg" viewBox="0 0 202.34 255.71">
  <defs>
    <style>
      .cls-1 {
        fill: #fff;
      }

      .cls-2 {
        fill: #231815;
      }

      .cls-3 {
        fill: #f5ac33;
      }
    </style>
  </defs>
  <path class="cls-3" d="M7.41,197.18c1.76-.45,7.03,8.11,60.5,8.41l.22,32.08s-17.93-1.57-17.03,9.11,16.73,8.81,16.73,8.81c0,0,15.98-.3,17.03-11.2s-.15-38.84-.15-38.84l32.41.15.3,36.9s.52,10.16,11.95,12.1,17.78-1.2,17.78-1.2c0,0,4.04-1.64,3.88-7.02-.12-4.28-2.62-6.82-4.33-7.32-5.25-1.54-12.3-1.42-12.3-1.42l.35-32.04s61.07,2.04,67.15-16.58c1.84-11.95-2.44-15.68-5.83-20.91-2.61-5.68-12.85-20.82-14.04-40.66s-9.41-49.72-9.41-49.72c0,0-12.62-42.27-52.88-49.74,0,0,9.49-26.22-18.56-28.08-26.93,1.27-18.49,28.08-18.49,28.08,0,0-37.33,8.48-50.79,46.01-15.04,41.93-6.57,74.79-29.28,99.19-2.2,4.48-6.39,16.36,4.78,23.9Z"/>
  <path class="cls-1" d="M44.8,107.59c.28-13.94,11.93-26.91,26.34-26.34,13.83.55,24.02,13.32,24.23,26.34.22,13.72-10.65,27.39-25.29,27.39-14.55,0-25.57-13.5-25.29-27.39Z"/>
  <path class="cls-1" d="M107.32,109.46c0-13.49,10.65-26.78,24.94-26.88,14.39-.1,25.28,13.25,25.29,26.88,0,13.54-10.74,26.88-25.11,26.88-14.38,0-25.11-13.34-25.11-26.88Z"/>
  <path class="cls-2" d="M74.66,96.65c-5.72.37-10.76,5.13-11.94,10.89-1.17,5.68,1.33,12.81,7.37,15.1,5.3,2.01,11.03-.56,14.05-4.24,4.87-5.94,3.31-15.59-2.11-19.64-3.05-2.28-6.48-2.16-7.38-2.11Z"/>
  <path class="cls-2" d="M126.18,96.71c-6.06.86-9.38,3.86-11.33,10.01-1.56,4.93-.06,10.75,4.21,14.05,5.23,4.05,12.85,2.95,17.21-1.43,5.34-5.37,3.62-13.67,0-18.94-2.55-3.7-9.04-3.84-10.1-3.69Z"/>
</svg>