<?xml version="1.0" encoding="UTF-8"?>
<svg id="_레이어_1" data-name="레이어 1" xmlns="http://www.w3.org/2000/svg" viewBox="0 0 185.7 219.17">
  <defs>
    <style>
      .cls-1 {
        fill: #fff;
      }

      .cls-2 {
        fill: #231815;
      }

      .cls-3 {
        fill: #b3cb3a;
      }
    </style>
  </defs>
  <path class="cls-3" d="M10.92,108.55C-.23,99.29-1.94,86.79,1.76,73.27c2.41-8.8,10.27-14.44,12.35-15.93,8.92-6.4,11.35-5.65,18.72-7.75-3.39-16.63-.4-26.49,11.15-35.75,4.91-3.94,12.17-5.58,18.72-4.48,9.05,1.51,12.15,4.58,17.13,9.56,4.38-5.38,7.95-10.6,19.12-16.33,5.18-2.66,15.3-4.17,21.51,0,7,4.7,8.27,11.55,9.56,18.72,11.45-1,26.59-6.97,38.94,9.36,5.8,7.67,6.8,24.6-1.99,35.55,11.97,8.11,18.52,13.74,18.72,31.07.15,12.98-1.89,22.8-19.02,33.16,5.48,9.76,2.52,24.3-3.98,32.27-9.43,11.56-23.2,13.84-37.84,13.15l.4,25.89s13.74-1.99,14.14,8.76c.12,3.21-3.05,6.22-8.76,7.77-6.02,1.63-22.11-.8-23.3-4.98-3.29-11.52-2.79-32.76-2.79-32.76-7.32,2.05-26.29,2.99-38.24-5.88,0,0,3.45,38.16-3.19,42.12-6.07,3.63-30.07,3.63-30.47-3.78-.51-9.57,5.78-9.96,13.74-10.36l-.2-33.86s-11,2.35-24.9-3.68c-10.09-4.38-20.71-15.83-21.02-26.29-.37-12.71-.05-16.93,10.66-30.27Z"/>
  <path class="cls-1" d="M28.92,105.23c.32-15.82,13.53-30.53,29.88-29.88,15.68.62,27.24,15.11,27.49,29.88.25,15.56-12.08,31.07-28.68,31.07-16.5,0-29-15.32-28.68-31.07Z"/>
  <path class="cls-1" d="M99.83,107.34c0-15.3,12.08-30.38,28.28-30.48,16.33-.11,28.68,15.03,28.68,30.48,0,15.35-12.18,30.48-28.48,30.48-16.31,0-28.48-15.14-28.48-30.48Z"/>
  <path class="cls-2" d="M62.78,92.81c-6.49.42-12.2,5.82-13.54,12.35-1.32,6.44,1.51,14.53,8.36,17.13,6.01,2.28,12.51-.63,15.93-4.81,5.52-6.74,3.76-17.68-2.39-22.28-3.46-2.58-7.35-2.45-8.37-2.39Z"/>
  <path class="cls-2" d="M123.03,91.82c-6.87.97-10.64,4.38-12.85,11.35-1.77,5.59-.07,12.19,4.78,15.93,5.94,4.59,14.58,3.35,19.52-1.62,6.06-6.09,4.11-15.5,0-21.48-2.89-4.2-10.26-4.35-11.45-4.18Z"/>
</svg>