<svg width="8" height="8" viewBox="0 0 8 8" fill="none" xmlns="http://www.w3.org/2000/svg">
<path d="M3.99973 1C4.58171 0.999894 5.15117 1.1691 5.63868 1.48701C6.12619 1.80491 6.51071 2.25778 6.74536 2.79042C6.98002 3.32306 7.05468 3.91246 6.96025 4.48679C6.86581 5.06112 6.60637 5.59558 6.21352 6.02502M3.99973 2.20001V4.00001L5.19962 4.60002M1.14999 3.06251C1.0544 3.35311 1.00382 3.65662 1 3.96251M1.24898 5.20002C1.41741 5.58757 1.66581 5.93516 1.97791 6.22002M1.79073 1.9705C1.87443 1.87937 1.96369 1.79351 2.058 1.7134M2.99302 6.82603C3.74106 7.09254 4.56424 7.05154 5.28211 6.71203" stroke="black" stroke-width="0.6" stroke-linecap="round" stroke-linejoin="round"/>
</svg>
