<svg width="9" height="10" viewBox="0 0 9 10" fill="none" xmlns="http://www.w3.org/2000/svg">
<path d="M4.5 4.36915H4.5035M5.9 4.36915H5.9035M3.1 4.36915H3.1035M8 6.89601C8 7.11939 7.92625 7.33363 7.79497 7.49159C7.6637 7.64955 7.48565 7.73829 7.3 7.73829H2.6898C2.50416 7.73834 2.32614 7.82711 2.1949 7.98508L1.4242 8.91244C1.38945 8.95425 1.34517 8.98272 1.29697 8.99426C1.24877 9.00579 1.19881 8.99987 1.15341 8.97724C1.108 8.95461 1.0692 8.91629 1.04189 8.86713C1.01458 8.81796 1.00001 8.76016 1 8.70103V1.84229C1 1.6189 1.07375 1.40466 1.20503 1.2467C1.3363 1.08874 1.51435 1 1.7 1H7.3C7.48565 1 7.6637 1.08874 7.79497 1.2467C7.92625 1.40466 8 1.6189 8 1.84229V6.89601Z" stroke="#CCCCCC" stroke-linecap="round" stroke-linejoin="round"/>
</svg>
