<svg width="20" height="22" viewBox="0 0 20 22" fill="none" xmlns="http://www.w3.org/2000/svg">
<path d="M1 9.99994H4C4.53043 9.99994 5.03914 10.2107 5.41421 10.5857C5.78929 10.9608 6 11.4695 6 11.9999V14.9999C6 15.5304 5.78929 16.0391 5.41421 16.4142C5.03914 16.7892 4.53043 16.9999 4 16.9999H3C2.46957 16.9999 1.96086 16.7892 1.58579 16.4142C1.21071 16.0391 1 15.5304 1 14.9999V9.99994ZM1 9.99994C1 8.81804 1.23279 7.64772 1.68508 6.55579C2.13738 5.46386 2.80031 4.47171 3.63604 3.63598C4.47177 2.80025 5.46392 2.13732 6.55585 1.68502C7.64778 1.23273 8.8181 0.999939 10 0.999939C11.1819 0.999939 12.3522 1.23273 13.4442 1.68502C14.5361 2.13732 15.5282 2.80025 16.364 3.63598C17.1997 4.47171 17.8626 5.46386 18.3149 6.55579C18.7672 7.64772 19 8.81804 19 9.99994M19 9.99994V14.9999M19 9.99994H16C15.4696 9.99994 14.9609 10.2107 14.5858 10.5857C14.2107 10.9608 14 11.4695 14 11.9999V14.9999C14 15.5304 14.2107 16.0391 14.5858 16.4142C14.9609 16.7892 15.4696 16.9999 16 16.9999H17C17.5304 16.9999 18.0391 16.7892 18.4142 16.4142C18.7893 16.0391 19 15.5304 19 14.9999M19 14.9999V16.9999C19 18.0608 18.5786 19.0782 17.8284 19.8284C17.0783 20.5785 16.0609 20.9999 15 20.9999H10" stroke="black" stroke-width="2" stroke-linecap="round" stroke-linejoin="round"/>
</svg>
