<svg width="24" height="24" viewBox="0 0 24 24" fill="none" xmlns="http://www.w3.org/2000/svg">
<mask id="mask0_1259_1153" style="mask-type:alpha" maskUnits="userSpaceOnUse" x="0" y="0" width="24" height="24">
<rect width="24" height="24" fill="#D9D9D9"/>
</mask>
<g mask="url(#mask0_1259_1153)">
<path d="M7.75 26C7.0625 26 6.47396 25.7498 5.98437 25.2493C5.49479 24.7488 5.25 24.1472 5.25 23.4444V6.83333H4V4.27778H10.25V3H17.75V4.27778H24V6.83333H22.75V23.4444C22.75 24.1472 22.5052 24.7488 22.0156 25.2493C21.526 25.7498 20.9375 26 20.25 26H7.75ZM20.25 6.83333H7.75V23.4444H20.25V6.83333ZM10.25 20.8889H12.75V9.38889H10.25V20.8889ZM15.25 20.8889H17.75V9.38889H15.25V20.8889Z" fill="#1C1B1F"/>
</g>
</svg>
