<svg width="18" height="20" viewBox="0 0 18 20" fill="none" xmlns="http://www.w3.org/2000/svg">
<path d="M7.22222 9.1V14.5Z" fill="white"/>
<path d="M10.7778 9.1V14.5Z" fill="white"/>
<path d="M15.2222 4.6V17.2C15.2222 17.6774 15.0349 18.1352 14.7015 18.4728C14.3681 18.8104 13.9159 19 13.4444 19H4.55556C4.08406 19 3.63187 18.8104 3.29848 18.4728C2.96508 18.1352 2.77778 17.6774 2.77778 17.2V4.6" fill="white"/>
<path d="M1 4.6H17Z" fill="white"/>
<path d="M5.44444 4.6V2.8C5.44444 2.32261 5.63175 1.86477 5.96514 1.52721C6.29854 1.18964 6.75073 1 7.22222 1H10.7778C11.2493 1 11.7015 1.18964 12.0349 1.52721C12.3683 1.86477 12.5556 2.32261 12.5556 2.8V4.6" fill="white"/>
<path d="M7.22222 9.1V14.5M10.7778 9.1V14.5M15.2222 4.6V17.2C15.2222 17.6774 15.0349 18.1352 14.7015 18.4728C14.3681 18.8104 13.9159 19 13.4444 19H4.55556C4.08406 19 3.63187 18.8104 3.29848 18.4728C2.96508 18.1352 2.77778 17.6774 2.77778 17.2V4.6M1 4.6H17M5.44444 4.6V2.8C5.44444 2.32261 5.63175 1.86477 5.96514 1.52721C6.29854 1.18964 6.75073 1 7.22222 1H10.7778C11.2493 1 11.7015 1.18964 12.0349 1.52721C12.3683 1.86477 12.5556 2.32261 12.5556 2.8V4.6" stroke="black" stroke-width="2" stroke-linecap="round" stroke-linejoin="round"/>
</svg>
