<svg width="62" height="62" viewBox="0 0 62 62" fill="none" xmlns="http://www.w3.org/2000/svg">
<path d="M51.15 32.9806V30.7417C51.15 19.6333 42.1083 10.5917 31 10.5917C19.8917 10.5917 10.85 19.6333 10.85 30.7417V32.9806C4.21944 34.9611 0 37.8028 0 40.9028C0 46.6722 13.8639 51.3222 31 51.3222C48.1361 51.3222 62 46.6722 62 40.9028C62 37.8028 57.7806 34.9611 51.15 32.9806Z" fill="#FFE1AB"/>
<path d="M10.4199 32.2917V37.4583C10.4199 37.6305 10.506 37.7167 10.5921 37.8028C11.6255 38.4055 17.3949 41.3333 31.0005 41.3333C44.606 41.3333 50.3755 38.4055 51.4088 37.8028C51.4949 37.7167 51.581 37.6305 51.581 37.4583V32.2917C51.581 32.0333 51.3227 31.8611 51.0644 31.9472C49.3421 32.8083 43.4866 35.3055 31.0005 35.3055C18.5144 35.3055 12.6588 32.8944 10.9366 31.9472C10.6783 31.8611 10.4199 32.0333 10.4199 32.2917Z" fill="#C4A6FF"/>
<path d="M16.1021 31.4305C16.1021 31.4305 16.3605 31.4305 16.791 31.5167C17.0494 31.6028 17.2216 31.6028 17.4799 31.775C17.7383 31.8611 18.0827 32.0333 18.341 32.1194C18.9438 32.4639 19.5466 32.8944 20.1494 33.4111C20.8383 33.9278 21.441 34.4444 22.1299 35.0472C22.4744 35.3055 22.7327 35.65 22.991 35.9944C23.2494 36.3389 23.5077 36.5972 23.766 36.9417C24.2827 37.5444 24.7133 38.2333 24.9716 38.8361C25.2299 39.4389 25.4021 40.0417 25.5744 40.4722C25.6605 40.9028 25.6605 41.1611 25.6605 41.1611C25.6605 41.5055 25.4021 41.85 25.0577 41.85H24.9716C24.9716 41.85 24.7133 41.85 24.2827 41.7639C23.8521 41.6778 23.2494 41.5055 22.6466 41.1611C22.0438 40.9028 21.3549 40.4722 20.7521 39.9555C20.4077 39.6972 20.1494 39.4389 19.8049 39.1805C19.4605 38.9222 19.2021 38.5778 18.8577 38.3194C18.2549 37.7167 17.7383 37.0278 17.2216 36.3389C16.791 35.65 16.2744 35.1333 15.9299 34.5305C15.7577 34.2722 15.6716 33.9278 15.5855 33.6694C15.4994 33.4111 15.4133 33.1528 15.3271 32.9805C15.4994 32.3778 15.4994 32.1194 15.4994 32.1194C15.4133 31.775 15.7577 31.4305 16.1021 31.4305Z" fill="white"/>
<path d="M20.1501 43.4C20.1501 43.4 19.9779 43.2278 19.7196 42.7972C19.6335 42.625 19.4612 42.3667 19.3751 42.1083C19.289 41.85 19.1168 41.5917 19.0307 41.2472C18.8585 40.6445 18.7724 39.8695 18.6001 39.0945C18.514 38.3195 18.3418 37.4583 18.3418 36.5972V35.3056C18.3418 34.875 18.4279 34.4445 18.4279 34.1C18.514 33.325 18.6862 32.55 18.8585 31.9472C19.1168 31.3445 19.3751 30.7417 19.6335 30.3972C19.8918 30.0528 20.064 29.7945 20.064 29.7945C20.3224 29.5361 20.6668 29.5361 20.9251 29.7083L21.0112 29.7945C21.0112 29.7945 21.1835 29.9667 21.4418 30.3972C21.7001 30.7417 21.9585 31.3445 22.2168 31.9472C22.4751 32.55 22.5612 33.325 22.6474 34.1C22.7335 34.5306 22.7335 34.875 22.7335 35.3056V36.5972C22.7335 37.4583 22.6474 38.3195 22.4751 39.0945C22.3029 39.8695 22.3029 40.6445 22.0446 41.2472C21.9585 41.5917 21.7862 41.85 21.7001 42.1083C21.614 42.3667 21.4418 42.625 21.3557 42.7972C21.0974 43.1417 20.9251 43.4 20.9251 43.4C20.839 43.6583 20.4085 43.7445 20.1501 43.4C20.1501 43.4861 20.1501 43.4861 20.1501 43.4Z" fill="white"/>
<path d="M15.5001 41.075C15.5001 41.075 15.5001 40.8167 15.5862 40.3861C15.6724 40.1278 15.6724 39.9556 15.8446 39.6972C15.9307 39.4389 16.1029 39.0944 16.189 38.8361C16.5335 38.2333 16.964 37.6306 17.4807 37.0278C17.9974 36.3389 18.514 35.7361 19.1168 35.0472C19.3751 34.7028 19.7196 34.4444 20.064 34.1861C20.4085 33.9278 20.6668 33.6694 21.0112 33.4111C21.614 32.8944 22.3029 32.4639 22.9057 32.2056C23.5085 31.9472 24.1112 31.775 24.5418 31.6028C24.9724 31.5167 25.2307 31.5167 25.2307 31.5167C25.5751 31.5167 25.9196 31.775 25.9196 32.1194V32.2056C25.9196 32.2056 25.9196 32.4639 25.8335 32.8944C25.7474 33.325 25.5751 33.9278 25.2307 34.5306C24.9724 35.1333 24.5418 35.8222 24.0251 36.425C23.7668 36.7694 23.5085 37.0278 23.2501 37.3722C22.9918 37.7167 22.6474 37.975 22.389 38.3194C21.7862 38.9222 21.0974 39.4389 20.4085 39.9556C19.7196 40.3861 19.2029 40.9028 18.6001 41.2472C18.3418 41.4194 17.9974 41.5056 17.739 41.5917C17.4807 41.6778 17.2224 41.7639 17.0501 41.85C16.6196 41.9361 16.3612 41.9361 16.3612 41.9361C15.7585 41.7639 15.5001 41.5056 15.5001 41.075C15.414 41.1611 15.414 41.075 15.5001 41.075Z" fill="white"/>
<path d="M27.4691 37.1139C27.4691 37.1139 27.2969 37.2861 26.8663 37.5445C26.6941 37.6306 26.4358 37.8028 26.1774 37.8889C25.9191 37.975 25.6608 38.1472 25.3163 38.2333C24.7135 38.4056 23.9385 38.4917 23.1635 38.6639C22.3885 38.75 21.5274 38.9222 20.6663 38.9222H19.3747C18.9441 38.75 18.5135 38.75 18.083 38.75C17.308 38.6639 16.533 38.4917 15.9302 38.3195C15.3274 38.0611 14.7247 37.8028 14.3802 37.5445C14.0358 37.2861 13.7774 37.1139 13.7774 37.1139C13.5191 36.8556 13.5191 36.5111 13.6913 36.2528L13.7774 36.1667C13.7774 36.1667 13.9497 35.9945 14.3802 35.7361C14.7247 35.4778 15.3274 35.2195 15.9302 34.9611C16.533 34.7028 17.308 34.6167 18.083 34.5306C18.5135 34.4445 18.858 34.4445 19.2885 34.4445H20.5802C21.4413 34.4445 22.3024 34.5306 23.0774 34.7028C23.8524 34.875 24.6274 34.875 25.2302 35.1333C25.5746 35.2195 25.833 35.3917 26.0913 35.4778C26.3496 35.5639 26.608 35.7361 26.7802 35.8222C27.1247 36.0806 27.383 36.2528 27.383 36.2528C27.7274 36.3389 27.7274 36.7695 27.4691 37.1139Z" fill="white"/>
<path d="M20.5801 39.525C22.1971 39.525 23.5079 38.2142 23.5079 36.5972C23.5079 34.9802 22.1971 33.6694 20.5801 33.6694C18.9632 33.6694 17.6523 34.9802 17.6523 36.5972C17.6523 38.2142 18.9632 39.525 20.5801 39.525Z" fill="#FFB636"/>
</svg>
