<svg width="20" height="22" viewBox="0 0 20 22" fill="none" xmlns="http://www.w3.org/2000/svg">
<path d="M1 10H4C4.53043 10 5.03914 10.2107 5.41421 10.5858C5.78929 10.9609 6 11.4696 6 12V15C6 15.5304 5.78929 16.0391 5.41421 16.4142C5.03914 16.7893 4.53043 17 4 17H3C2.46957 17 1.96086 16.7893 1.58579 16.4142C1.21071 16.0391 1 15.5304 1 15V10ZM1 10C1 8.8181 1.23279 7.64778 1.68508 6.55585C2.13738 5.46392 2.80031 4.47177 3.63604 3.63604C4.47177 2.80031 5.46392 2.13738 6.55585 1.68508C7.64778 1.23279 8.8181 1 10 1C11.1819 1 12.3522 1.23279 13.4442 1.68508C14.5361 2.13738 15.5282 2.80031 16.364 3.63604C17.1997 4.47177 17.8626 5.46392 18.3149 6.55585C18.7672 7.64778 19 8.8181 19 10M19 10V15M19 10H16C15.4696 10 14.9609 10.2107 14.5858 10.5858C14.2107 10.9609 14 11.4696 14 12V15C14 15.5304 14.2107 16.0391 14.5858 16.4142C14.9609 16.7893 15.4696 17 16 17H17C17.5304 17 18.0391 16.7893 18.4142 16.4142C18.7893 16.0391 19 15.5304 19 15M19 15V17C19 18.0609 18.5786 19.0783 17.8284 19.8284C17.0783 20.5786 16.0609 21 15 21H10" stroke="black" stroke-width="2" stroke-linecap="round" stroke-linejoin="round"/>
</svg>
