<svg width="23" height="22" viewBox="0 0 23 22" fill="none" xmlns="http://www.w3.org/2000/svg">
<path d="M14.6479 21V15.7368C14.6479 15.4577 14.5373 15.1899 14.3404 14.9925C14.1436 14.7951 13.8766 14.6842 13.5982 14.6842H9.39909C9.12068 14.6842 8.85367 14.7951 8.6568 14.9925C8.45993 15.1899 8.34933 15.4577 8.34933 15.7368V21M17.56 9.74737C17.3411 9.5373 17.0499 9.42005 16.7469 9.42005C16.444 9.42005 16.1527 9.5373 15.9339 9.74737C15.4457 10.2142 14.7971 10.4747 14.1225 10.4747C13.4479 10.4747 12.7993 10.2142 12.3111 9.74737C12.0924 9.53761 11.8013 9.42055 11.4986 9.42055C11.1959 9.42055 10.9049 9.53761 10.6861 9.74737C10.1979 10.2145 9.54903 10.4752 8.87421 10.4752C8.19939 10.4752 7.5505 10.2145 7.06232 9.74737C6.84348 9.5373 6.55222 9.42005 6.24927 9.42005C5.94633 9.42005 5.65507 9.5373 5.43623 9.74737C4.96472 10.1985 4.34266 10.4576 3.69113 10.4743C3.0396 10.4909 2.40521 10.2638 1.91144 9.83724C1.41767 9.41068 1.09986 8.81515 1.01986 8.16657C0.939851 7.51799 1.10338 6.86276 1.47862 6.32842L4.51139 1.92421C4.70382 1.63949 4.96289 1.40637 5.26594 1.24526C5.56899 1.08414 5.90679 0.999937 6.2498 1H16.7474C17.0895 0.999869 17.4263 1.08352 17.7287 1.24367C18.0312 1.40383 18.29 1.63564 18.4827 1.91895L21.5218 6.33158C21.8971 6.86634 22.0604 7.52207 21.9799 8.17099C21.8994 8.8199 21.5809 9.41552 21.0863 9.84178C20.5918 10.268 19.9567 10.4944 19.3048 10.4767C18.6529 10.4591 18.0309 10.1987 17.56 9.74632M3.10051 10.4211V18.8947C3.10051 19.4531 3.3217 19.9886 3.71544 20.3834C4.10918 20.7782 4.6432 21 5.20003 21H17.7972C18.354 21 18.8881 20.7782 19.2818 20.3834C19.6755 19.9886 19.8967 19.4531 19.8967 18.8947V10.4211" stroke="#FFCC02" stroke-width="2" stroke-linecap="round" stroke-linejoin="round"/>
</svg>
