<svg width="17" height="21" viewBox="0 0 17 21" fill="none" xmlns="http://www.w3.org/2000/svg">
<path d="M16 8.60009C16 13.3435 10.8072 18.2836 9.06344 19.8093C8.90099 19.9331 8.70325 20 8.5 20C8.29675 20 8.09901 19.9331 7.93656 19.8093C6.19281 18.2836 1 13.3435 1 8.60009C1 6.58442 1.79018 4.65131 3.1967 3.22602C4.60322 1.80072 6.51088 1 8.5 1C10.4891 1 12.3968 1.80072 13.8033 3.22602C15.2098 4.65131 16 6.58442 16 8.60009Z" stroke="#7B7B7B" stroke-width="1.5" stroke-linecap="round" stroke-linejoin="round"/>
<path d="M8.5 11.4501C10.0533 11.4501 11.3125 10.1741 11.3125 8.60009C11.3125 7.02606 10.0533 5.75006 8.5 5.75006C6.9467 5.75006 5.6875 7.02606 5.6875 8.60009C5.6875 10.1741 6.9467 11.4501 8.5 11.4501Z" stroke="#7B7B7B" stroke-width="1.5" stroke-linecap="round" stroke-linejoin="round"/>
</svg>
