<svg width="170" height="52" viewBox="0 0 170 52" fill="none" xmlns="http://www.w3.org/2000/svg">
<path d="M3.12 42C2.78667 42 2.62 41.8333 2.62 41.5V15.84C2.62 15.5067 2.78667 15.34 3.12 15.34H15.54C15.86 15.34 16.1267 15.4467 16.34 15.66L20.34 19.66C20.5667 19.8867 20.68 20.1533 20.68 20.46V36.86C20.68 37.18 20.5667 37.4467 20.34 37.66L16.34 41.66C16.1267 41.8867 15.86 42 15.54 42H3.12ZM10.04 35.46H12.44C13 35.46 13.28 35.0867 13.28 34.34V23C13.28 22.24 13 21.86 12.44 21.86H10.04V35.46ZM24.4091 42C24.0757 42 23.9091 41.8333 23.9091 41.5V15.84C23.9091 15.5067 24.0757 15.34 24.4091 15.34H36.8291C37.1491 15.34 37.4157 15.4467 37.6291 15.66L41.6291 19.66C41.8557 19.8867 41.9691 20.1533 41.9691 20.46V36.86C41.9691 37.18 41.8557 37.4467 41.6291 37.66L37.6291 41.66C37.4157 41.8867 37.1491 42 36.8291 42H24.4091ZM31.3291 35.46H33.7291C34.2891 35.46 34.5691 35.0867 34.5691 34.34V23C34.5691 22.24 34.2891 21.86 33.7291 21.86H31.3291V35.46ZM45.6981 42C45.3648 42 45.1981 41.8333 45.1981 41.5V22.96C45.1981 22.7733 45.2648 22.5733 45.3981 22.36L50.1381 15.64C50.2848 15.44 50.4981 15.34 50.7781 15.34H57.6381C57.9315 15.34 58.1448 15.44 58.2781 15.64L63.0381 22.36C63.1715 22.5467 63.2381 22.7467 63.2381 22.96V41.5C63.2381 41.8333 63.0715 42 62.7381 42H56.3381C56.0048 42 55.8381 41.8333 55.8381 41.5V33.44H52.6181V41.5C52.6181 41.8333 52.4515 42 52.1181 42H45.6981ZM54.2181 27.96C55.1515 27.96 55.8181 27.7333 56.2181 27.28C56.6181 26.8133 56.8181 26.0333 56.8181 24.94C56.8181 23.8467 56.6181 23.0733 56.2181 22.62C55.8181 22.1667 55.1515 21.94 54.2181 21.94C53.2981 21.94 52.6315 22.1667 52.2181 22.62C51.8181 23.0733 51.6181 23.8467 51.6181 24.94C51.6181 26.0333 51.8181 26.8133 52.2181 27.28C52.6315 27.7333 53.2981 27.96 54.2181 27.96ZM67.0672 42C66.7339 42 66.5672 41.8333 66.5672 41.5V15.84C66.5672 15.5067 66.7339 15.34 67.0672 15.34H73.4672C73.8005 15.34 73.9672 15.5067 73.9672 15.84V35.46H78.2672C78.6005 35.46 78.7672 35.6267 78.7672 35.96V41.5C78.7672 41.8333 78.6005 42 78.2672 42H67.0672ZM80.6547 32.14C80.3214 32.14 80.1547 31.9733 80.1547 31.64V25.7C80.1547 25.3667 80.3214 25.2 80.6547 25.2H90.2547C90.588 25.2 90.7547 25.3667 90.7547 25.7V31.64C90.7547 31.9733 90.588 32.14 90.2547 32.14H80.6547ZM93.5516 42C93.2182 42 93.0516 41.8333 93.0516 41.5V15.84C93.0516 15.5067 93.2182 15.34 93.5516 15.34H99.9516C100.285 15.34 100.452 15.5067 100.452 15.84V35.46H104.752C105.085 35.46 105.252 35.6267 105.252 35.96V41.5C105.252 41.8333 105.085 42 104.752 42H93.5516ZM108.159 42C107.826 42 107.659 41.8333 107.659 41.5V22.96C107.659 22.7733 107.726 22.5733 107.859 22.36L112.599 15.64C112.746 15.44 112.959 15.34 113.239 15.34H120.099C120.392 15.34 120.606 15.44 120.739 15.64L125.499 22.36C125.632 22.5467 125.699 22.7467 125.699 22.96V41.5C125.699 41.8333 125.532 42 125.199 42H118.799C118.466 42 118.299 41.8333 118.299 41.5V33.44H115.079V41.5C115.079 41.8333 114.912 42 114.579 42H108.159ZM116.679 27.96C117.612 27.96 118.279 27.7333 118.679 27.28C119.079 26.8133 119.279 26.0333 119.279 24.94C119.279 23.8467 119.079 23.0733 118.679 22.62C118.279 22.1667 117.612 21.94 116.679 21.94C115.759 21.94 115.092 22.1667 114.679 22.62C114.279 23.0733 114.079 23.8467 114.079 24.94C114.079 26.0333 114.279 26.8133 114.679 27.28C115.092 27.7333 115.759 27.96 116.679 27.96ZM129.528 42C129.195 42 129.028 41.8333 129.028 41.5V15.84C129.028 15.5067 129.195 15.34 129.528 15.34H141.488C141.808 15.34 142.075 15.4467 142.288 15.66L146.288 19.66C146.515 19.8867 146.628 20.1533 146.628 20.46V41.5C146.628 41.8333 146.461 42 146.128 42H139.708C139.375 42 139.208 41.8333 139.208 41.5V21.86H136.428V41.5C136.428 41.8333 136.261 42 135.928 42H129.528ZM155.184 42C154.864 42 154.597 41.8867 154.384 41.66L150.384 37.66C150.157 37.4467 150.044 37.18 150.044 36.86V20.46C150.044 20.1533 150.157 19.8867 150.384 19.66L154.384 15.66C154.597 15.4467 154.864 15.34 155.184 15.34H167.124C167.457 15.34 167.624 15.5067 167.624 15.84V21.36C167.624 21.6933 167.457 21.86 167.124 21.86H158.124C157.937 21.86 157.777 21.9267 157.644 22.06C157.51 22.1933 157.444 22.3533 157.444 22.54V34.78C157.444 34.9667 157.51 35.1267 157.644 35.26C157.777 35.3933 157.937 35.46 158.124 35.46H161.784V31.18L159.624 31.16C159.29 31.16 159.124 30.9933 159.124 30.66V26.06C159.124 25.7267 159.29 25.56 159.624 25.56H167.964C168.297 25.56 168.464 25.7267 168.464 26.06V36.86C168.464 37.18 168.35 37.4467 168.124 37.66L164.124 41.66C163.91 41.8867 163.644 42 163.324 42H155.184Z" fill="#FFB635"/>
<g filter="url(#filter0_d_236_121)">
<circle cx="9.5" cy="8.5" r="8.5" fill="white"/>
<circle cx="11.5" cy="9.5" r="4.5" fill="black"/>
<circle cx="30.5" cy="8.5" r="8.5" fill="white"/>
<circle cx="28.5" cy="9.5" r="4.5" fill="black"/>
</g>
<defs>
<filter id="filter0_d_236_121" x="0" y="0" width="40" height="19" filterUnits="userSpaceOnUse" color-interpolation-filters="sRGB">
<feFlood flood-opacity="0" result="BackgroundImageFix"/>
<feColorMatrix in="SourceAlpha" type="matrix" values="0 0 0 0 0 0 0 0 0 0 0 0 0 0 0 0 0 0 127 0" result="hardAlpha"/>
<feOffset dy="1"/>
<feGaussianBlur stdDeviation="0.5"/>
<feComposite in2="hardAlpha" operator="out"/>
<feColorMatrix type="matrix" values="0 0 0 0 0 0 0 0 0 0 0 0 0 0 0 0 0 0 0.1 0"/>
<feBlend mode="normal" in2="BackgroundImageFix" result="effect1_dropShadow_236_121"/>
<feBlend mode="normal" in="SourceGraphic" in2="effect1_dropShadow_236_121" result="shape"/>
</filter>
</defs>
</svg>
