<svg width="22" height="22" viewBox="0 0 22 22" fill="none" xmlns="http://www.w3.org/2000/svg">
<path d="M11 1C12.9401 0.999647 14.8385 1.56368 16.4637 2.62336C18.0889 3.68303 19.3707 5.19259 20.153 6.96804C20.9352 8.74349 21.1841 10.7082 20.8693 12.6226C20.5545 14.537 19.6896 16.3185 18.38 17.75M15 11L11 7M11 7L7 11M11 7V15M1.5 7.875C1.18135 8.84366 1.01273 9.85536 1 10.875M1.83 15C2.3915 16.2918 3.21958 17.4505 4.26 18.4M3.636 4.235C3.91504 3.93123 4.21261 3.64502 4.527 3.378M7.644 20.42C10.1377 21.3084 12.8819 21.1717 15.275 20.04" stroke="black" stroke-width="2" stroke-linecap="round" stroke-linejoin="round"/>
</svg>
