<svg width="27" height="26" viewBox="0 0 27 26" fill="none" xmlns="http://www.w3.org/2000/svg">
<path d="M17.2475 25V18.6842C17.2475 18.3492 17.1159 18.0279 16.8815 17.791C16.6471 17.5541 16.3292 17.4211 15.9978 17.4211H10.9989C10.6675 17.4211 10.3496 17.5541 10.1152 17.791C9.88087 18.0279 9.7492 18.3492 9.7492 18.6842V25M20.7142 11.4968C20.4537 11.2448 20.107 11.1041 19.7463 11.1041C19.3857 11.1041 19.039 11.2448 18.7784 11.4968C18.1973 12.0571 17.4251 12.3696 16.622 12.3696C15.819 12.3696 15.0468 12.0571 14.4656 11.4968C14.2052 11.2451 13.8587 11.1047 13.4984 11.1047C13.138 11.1047 12.7915 11.2451 12.5311 11.4968C11.9499 12.0574 11.1774 12.3702 10.3741 12.3702C9.5707 12.3702 8.79822 12.0574 8.21704 11.4968C7.95652 11.2448 7.60979 11.1041 7.24914 11.1041C6.88848 11.1041 6.54175 11.2448 6.28123 11.4968C5.71991 12.0382 4.97936 12.3492 4.20373 12.3691C3.42809 12.389 2.67287 12.1166 2.08505 11.6047C1.49723 11.0928 1.11888 10.3782 1.02364 9.59989C0.928394 8.82159 1.12307 8.03531 1.56978 7.3941L5.18022 2.10905C5.40931 1.76738 5.71772 1.48765 6.0785 1.29431C6.43927 1.10097 6.84142 0.999924 7.24976 1H19.747C20.1541 0.999842 20.5551 1.10022 20.9152 1.29241C21.2752 1.48459 21.5833 1.76277 21.8127 2.10274L25.4307 7.39789C25.8775 8.03961 26.0719 8.82648 25.9761 9.60518C25.8803 10.3839 25.501 11.0986 24.9123 11.6101C24.3235 12.1216 23.5674 12.3933 22.7914 12.3721C22.0153 12.3509 21.2748 12.0384 20.7142 11.4956M3.5006 12.3053V22.4737C3.5006 23.1437 3.76393 23.7863 4.23267 24.2601C4.70141 24.7338 5.33715 25 6.00004 25H20.9967C21.6596 25 22.2953 24.7338 22.7641 24.2601C23.2328 23.7863 23.4961 23.1437 23.4961 22.4737V12.3053" stroke="black" stroke-width="2" stroke-linecap="round" stroke-linejoin="round"/>
</svg>
