<svg width="27" height="25" viewBox="0 0 27 25" fill="none" xmlns="http://www.w3.org/2000/svg">
<path d="M13.5 17.6111V24M18.5 15.0556V24M23.5 9.94444V24M26 1L15.1925 12.0477C15.1344 12.1072 15.0655 12.1544 14.9895 12.1866C14.9136 12.2188 14.8322 12.2354 14.75 12.2354C14.6678 12.2354 14.5864 12.2188 14.5105 12.1866C14.4345 12.1544 14.3656 12.1072 14.3075 12.0477L10.1925 7.84122C10.0753 7.72145 9.91635 7.65416 9.75062 7.65416C9.5849 7.65416 9.42596 7.72145 9.30875 7.84122L1 16.3333M3.5 20.1667V24M8.5 15.0556V24" stroke="#7B7B7B" stroke-width="2" stroke-linecap="round" stroke-linejoin="round"/>
</svg>
