<svg width="67" height="64" viewBox="0 0 67 64" fill="none" xmlns="http://www.w3.org/2000/svg">
<path d="M66.2954 44.0257H1.51143C0.37087 45.5464 -1.22592 49.2723 1.51143 52.0096H66.2954V44.0257Z" fill="#DF8C35"/>
<path d="M27.5664 29.6546C21.7409 25.4109 11.8376 15.7414 18.8282 11.0128C22.3541 9.34559 29.9119 10.7399 31.9355 29.6546H27.5664Z" fill="#4CAC55"/>
<path d="M27.5169 23.9588C27.0965 15.7825 28.5873 0.0333348 37.9139 2.44661C41.9733 4.20464 46.2118 11.7153 30.6913 27.6934L27.5169 23.9588Z" fill="#4CAC55"/>
<path d="M30.5522 24.5503C35.0759 17.6974 45.6492 5.84366 51.7534 13.2518C53.9892 17.048 52.9481 25.5975 30.8969 29.4258L30.5522 24.5503Z" fill="#4CAC55"/>
<path d="M18.7414 27.8297C16.9925 28.8182 14.5441 31.7076 18.7414 35.3574H45.8868C47.3315 33.6846 49.3541 29.8371 45.8868 27.8297H18.7414Z" fill="#EC9D44"/>
<path d="M22.2774 46.0787C19.54 44.4363 19.9202 37.1823 20.4525 33.7606H41.895C43.5375 35.768 42.5794 42.8091 41.895 46.0787H22.2774Z" fill="#EC9D44"/>
<path d="M10.8643 46.0787L10.8643 62.1284C11.7767 63.9533 17.4795 64.6376 18.6201 62.1284V46.0787H10.8643Z" fill="#DF8C35"/>
</svg>
