<svg width="20" height="20" viewBox="0 0 20 20" fill="none" xmlns="http://www.w3.org/2000/svg">
<path d="M19 14H16C15.4696 14 14.9609 14.2107 14.5858 14.5858C14.2107 14.9609 14 15.4696 14 16V19M19 19V19.01M10 5V8C10 8.53043 9.78929 9.03914 9.41421 9.41421C9.03914 9.78929 8.53043 10 8 10H5M1 10H1.01M10 1H10.01M10 14V14.01M14 10H15M19 10V10.01M10 19V18M2 1H5C5.55228 1 6 1.44772 6 2V5C6 5.55228 5.55228 6 5 6H2C1.44772 6 1 5.55228 1 5V2C1 1.44772 1.44772 1 2 1ZM15 1H18C18.5523 1 19 1.44772 19 2V5C19 5.55228 18.5523 6 18 6H15C14.4477 6 14 5.55228 14 5V2C14 1.44772 14.4477 1 15 1ZM2 14H5C5.55228 14 6 14.4477 6 15V18C6 18.5523 5.55228 19 5 19H2C1.44772 19 1 18.5523 1 18V15C1 14.4477 1.44772 14 2 14Z" stroke="white" stroke-width="2" stroke-linecap="round" stroke-linejoin="round"/>
</svg>
