<svg width="22" height="22" viewBox="0 0 22 22" fill="none" xmlns="http://www.w3.org/2000/svg">
<path d="M1 6L5.41 1.59C5.59606 1.40283 5.81732 1.25434 6.06103 1.15308C6.30474 1.05182 6.56609 0.999792 6.83 1H15.17C15.4339 0.999792 15.6953 1.05182 15.939 1.15308C16.1827 1.25434 16.4039 1.40283 16.59 1.59L21 6M1 6H21M1 6V9C1 9.53043 1.21071 10.0391 1.58579 10.4142C1.96086 10.7893 2.46957 11 3 11M21 6V9C21 9.53043 20.7893 10.0391 20.4142 10.4142C20.0391 10.7893 19.5304 11 19 11M3 11V19C3 19.5304 3.21071 20.0391 3.58579 20.4142C3.96086 20.7893 4.46957 21 5 21H17C17.5304 21 18.0391 20.7893 18.4142 20.4142C18.7893 20.0391 19 19.5304 19 19V11M3 11C3.58426 10.9678 4.14227 10.7467 4.59 10.37C4.70932 10.2838 4.85279 10.2374 5 10.2374C5.14721 10.2374 5.29068 10.2838 5.41 10.37C5.85773 10.7467 6.41574 10.9678 7 11C7.58426 10.9678 8.14227 10.7467 8.59 10.37C8.70932 10.2838 8.85279 10.2374 9 10.2374C9.14721 10.2374 9.29068 10.2838 9.41 10.37C9.85773 10.7467 10.4157 10.9678 11 11C11.5843 10.9678 12.1423 10.7467 12.59 10.37C12.7093 10.2838 12.8528 10.2374 13 10.2374C13.1472 10.2374 13.2907 10.2838 13.41 10.37C13.8577 10.7467 14.4157 10.9678 15 11C15.5843 10.9678 16.1423 10.7467 16.59 10.37C16.7093 10.2838 16.8528 10.2374 17 10.2374C17.1472 10.2374 17.2907 10.2838 17.41 10.37C17.8577 10.7467 18.4157 10.9678 19 11M14 21V17C14 16.4696 13.7893 15.9609 13.4142 15.5858C13.0391 15.2107 12.5304 15 12 15H10C9.46957 15 8.96086 15.2107 8.58579 15.5858C8.21071 15.9609 8 16.4696 8 17V21" stroke="black" stroke-width="2" stroke-linecap="round" stroke-linejoin="round"/>
</svg>
