<svg width="15" height="15" viewBox="0 0 15 15" fill="none" xmlns="http://www.w3.org/2000/svg">
<path d="M1.6446 10.322C1.74017 10.5631 1.76145 10.8273 1.7057 11.0806L1.01345 13.2191C0.991144 13.3275 0.996911 13.4399 1.0302 13.5455C1.0635 13.651 1.12321 13.7464 1.20368 13.8224C1.28416 13.8985 1.38272 13.9527 1.49003 13.98C1.59734 14.0072 1.70983 14.0067 1.81685 13.9783L4.0353 13.3296C4.27431 13.2821 4.52184 13.3029 4.74964 13.3894C6.13764 14.0375 7.70998 14.1747 9.18924 13.7766C10.6685 13.3785 11.9596 12.4707 12.8348 11.2134C13.71 9.95614 14.113 8.43016 13.9727 6.90471C13.8324 5.37927 13.1578 3.95238 12.068 2.87581C10.9782 1.79924 9.54319 1.14218 8.01614 1.02053C6.48908 0.898892 4.96813 1.3205 3.72163 2.21096C2.47513 3.10143 1.58319 4.40353 1.20318 5.88753C0.823165 7.37153 0.979499 8.94206 1.6446 10.322Z" fill="#FFB635"/>
<path d="M4.78799 8.19525C4.43955 7.83077 4.24584 7.34548 4.24753 6.84124C4.24922 6.337 4.44617 5.85302 4.79704 5.49088C5.14792 5.12874 5.62543 4.91659 6.12937 4.89897C6.63331 4.88135 7.12448 5.05962 7.49979 5.39637C7.77979 5.14503 8.12652 4.98006 8.49818 4.92136C8.86983 4.86266 9.25054 4.91273 9.59437 5.06555C9.9382 5.21836 10.2305 5.46738 10.436 5.78258C10.6414 6.09778 10.7513 6.4657 10.7524 6.84196C10.754 7.34622 10.5601 7.83149 10.2116 8.1959L7.97104 10.5489C7.91027 10.6128 7.83715 10.6636 7.75611 10.6983C7.67507 10.7331 7.58782 10.7509 7.49965 10.7509C7.41149 10.7508 7.32426 10.7328 7.24327 10.698C7.16228 10.6631 7.08922 10.6122 7.02854 10.5482L4.78799 8.19525Z" fill="#FFB635"/>
<path d="M1.6446 10.322C1.74017 10.5631 1.76145 10.8273 1.7057 11.0806L1.01345 13.2191C0.991144 13.3275 0.996911 13.4399 1.0302 13.5455C1.0635 13.651 1.12321 13.7464 1.20368 13.8224C1.28416 13.8985 1.38272 13.9527 1.49003 13.98C1.59734 14.0072 1.70983 14.0067 1.81685 13.9783L4.0353 13.3296C4.27431 13.2821 4.52184 13.3029 4.74964 13.3894C6.13764 14.0375 7.70998 14.1747 9.18924 13.7766C10.6685 13.3785 11.9596 12.4707 12.8348 11.2134C13.71 9.95614 14.113 8.43016 13.9727 6.90471C13.8324 5.37927 13.1578 3.95238 12.068 2.87581C10.9782 1.79924 9.54319 1.14218 8.01614 1.02053C6.48908 0.898892 4.96813 1.3205 3.72163 2.21096C2.47513 3.10143 1.58319 4.40353 1.20318 5.88753C0.823165 7.37153 0.979499 8.94206 1.6446 10.322Z" stroke="black" stroke-width="2" stroke-linecap="round" stroke-linejoin="round"/>
<path d="M4.78799 8.19525C4.43955 7.83077 4.24584 7.34548 4.24753 6.84124C4.24922 6.337 4.44617 5.85302 4.79704 5.49088C5.14792 5.12874 5.62543 4.91659 6.12937 4.89897C6.63331 4.88135 7.12448 5.05962 7.49979 5.39637C7.77979 5.14503 8.12652 4.98006 8.49818 4.92136C8.86983 4.86266 9.25054 4.91273 9.59437 5.06555C9.9382 5.21836 10.2305 5.46738 10.436 5.78258C10.6414 6.09778 10.7513 6.4657 10.7524 6.84196C10.754 7.34622 10.5601 7.83149 10.2116 8.1959L7.97104 10.5489C7.91027 10.6128 7.83715 10.6636 7.75611 10.6983C7.67507 10.7331 7.58782 10.7509 7.49965 10.7509C7.41149 10.7508 7.32426 10.7328 7.24327 10.698C7.16228 10.6631 7.08922 10.6122 7.02854 10.5482L4.78799 8.19525Z" stroke="black" stroke-width="2" stroke-linecap="round" stroke-linejoin="round"/>
</svg>
