<svg width="22" height="22" viewBox="0 0 22 22" fill="none" xmlns="http://www.w3.org/2000/svg">
<path d="M1.99169 15.3417C2.13873 15.7126 2.17147 16.119 2.08569 16.5087L1.02069 19.7987C0.986375 19.9655 0.995248 20.1384 1.04647 20.3008C1.09769 20.4633 1.18955 20.61 1.31336 20.727C1.43716 20.844 1.5888 20.9274 1.75389 20.9693C1.91898 21.0113 2.09205 21.0104 2.25669 20.9667L5.66969 19.9687C6.03741 19.8958 6.41822 19.9276 6.76869 20.0607C8.90408 21.0579 11.3231 21.2689 13.5988 20.6564C15.8746 20.0439 17.861 18.6473 19.2074 16.7131C20.5538 14.7788 21.1738 12.4311 20.958 10.0842C20.7422 7.73738 19.7044 5.54216 18.0278 3.88589C16.3511 2.22962 14.1434 1.21873 11.7941 1.03159C9.44475 0.844449 7.10483 1.49308 5.18713 2.86303C3.26944 4.23299 1.89722 6.23624 1.31258 8.51933C0.727946 10.8024 0.96846 13.2186 1.99169 15.3417Z" fill="#FFB635"/>
<path d="M6.82769 12.0697C6.29162 11.5089 5.99361 10.7623 5.99621 9.98659C5.9988 9.21083 6.3018 8.46624 6.84161 7.90909C7.38142 7.35195 8.11606 7.02557 8.89135 6.99846C9.66664 6.97135 10.4223 7.24562 10.9997 7.76369C11.4305 7.37701 11.9639 7.12321 12.5357 7.0329C13.1075 6.94259 13.6931 7.01963 14.2221 7.25473C14.7511 7.48983 15.2008 7.87295 15.5169 8.35788C15.833 8.8428 16.0021 9.40883 16.0037 9.98769C16.0061 10.7635 15.7079 11.5101 15.1717 12.0707L11.7247 15.6907C11.6312 15.789 11.5187 15.8672 11.394 15.9206C11.2694 15.974 11.1351 16.0015 10.9995 16.0014C10.8638 16.0014 10.7296 15.9737 10.605 15.9201C10.4804 15.8665 10.368 15.7881 10.2747 15.6897L6.82769 12.0697Z" fill="#FFB635"/>
<path d="M1.99169 15.3417C2.13873 15.7126 2.17147 16.119 2.08569 16.5087L1.02069 19.7987C0.986375 19.9655 0.995248 20.1384 1.04647 20.3008C1.09769 20.4633 1.18955 20.61 1.31336 20.727C1.43716 20.844 1.5888 20.9274 1.75389 20.9693C1.91898 21.0113 2.09205 21.0104 2.25669 20.9667L5.66969 19.9687C6.03741 19.8958 6.41822 19.9276 6.76869 20.0607C8.90408 21.0579 11.3231 21.2689 13.5988 20.6564C15.8746 20.0439 17.861 18.6473 19.2074 16.7131C20.5538 14.7788 21.1738 12.4311 20.958 10.0842C20.7422 7.73738 19.7044 5.54216 18.0278 3.88589C16.3511 2.22962 14.1434 1.21873 11.7941 1.03159C9.44475 0.844449 7.10483 1.49308 5.18713 2.86303C3.26944 4.23299 1.89722 6.23624 1.31258 8.51933C0.727946 10.8024 0.96846 13.2186 1.99169 15.3417Z" stroke="black" stroke-width="2" stroke-linecap="round" stroke-linejoin="round"/>
<path d="M6.82769 12.0697C6.29162 11.5089 5.99361 10.7623 5.99621 9.98659C5.9988 9.21083 6.3018 8.46624 6.84161 7.90909C7.38142 7.35195 8.11606 7.02557 8.89135 6.99846C9.66664 6.97135 10.4223 7.24562 10.9997 7.76369C11.4305 7.37701 11.9639 7.12321 12.5357 7.0329C13.1075 6.94259 13.6931 7.01963 14.2221 7.25473C14.7511 7.48983 15.2008 7.87295 15.5169 8.35788C15.833 8.8428 16.0021 9.40883 16.0037 9.98769C16.0061 10.7635 15.7079 11.5101 15.1717 12.0707L11.7247 15.6907C11.6312 15.789 11.5187 15.8672 11.394 15.9206C11.2694 15.974 11.1351 16.0015 10.9995 16.0014C10.8638 16.0014 10.7296 15.9737 10.605 15.9201C10.4804 15.8665 10.368 15.7881 10.2747 15.6897L6.82769 12.0697Z" stroke="black" stroke-width="2" stroke-linecap="round" stroke-linejoin="round"/>
</svg>
