<svg width="24" height="26" viewBox="0 0 24 26" fill="none" xmlns="http://www.w3.org/2000/svg">
<path d="M12.2684 1H11.7316C11.0846 1 10.4641 1.25286 10.0065 1.70294C9.54899 2.15303 9.29196 2.76348 9.29196 3.4V3.616C9.29152 4.03687 9.17858 4.45023 8.96448 4.8146C8.75037 5.17898 8.44263 5.48156 8.07212 5.692L7.54759 5.992C7.17671 6.20264 6.756 6.31354 6.32775 6.31354C5.89949 6.31354 5.47878 6.20264 5.10791 5.992L4.92493 5.896C4.3651 5.57832 3.70001 5.49213 3.07566 5.65637C2.4513 5.82061 1.9187 6.22184 1.59477 6.772L1.3264 7.228C1.00347 7.77872 0.91586 8.433 1.08281 9.0472C1.24977 9.6614 1.65763 10.1853 2.21689 10.504L2.39986 10.624C2.76859 10.8334 3.07519 11.1341 3.28919 11.4962C3.50319 11.8583 3.61713 12.2692 3.6197 12.688V13.3C3.62141 13.7229 3.50949 14.1387 3.29528 14.5054C3.08107 14.8721 2.77217 15.1765 2.39986 15.388L2.21689 15.496C1.65763 15.8147 1.24977 16.3386 1.08281 16.9528C0.91586 17.567 1.00347 18.2213 1.3264 18.772L1.59477 19.228C1.9187 19.7782 2.4513 20.1794 3.07566 20.3436C3.70001 20.5079 4.3651 20.4217 4.92493 20.104L5.10791 20.008C5.47878 19.7974 5.89949 19.6865 6.32775 19.6865C6.756 19.6865 7.17671 19.7974 7.54759 20.008L8.07212 20.308C8.44263 20.5184 8.75037 20.821 8.96448 21.1854C9.17858 21.5498 9.29152 21.9631 9.29196 22.384V22.6C9.29196 23.2365 9.54899 23.847 10.0065 24.2971C10.4641 24.7471 11.0846 25 11.7316 25H12.2684C12.9154 25 13.5359 24.7471 13.9935 24.2971C14.451 23.847 14.708 23.2365 14.708 22.6V22.384C14.7085 21.9631 14.8214 21.5498 15.0355 21.1854C15.2496 20.821 15.5574 20.5184 15.9279 20.308L16.4524 20.008C16.8233 19.7974 17.244 19.6865 17.6723 19.6865C18.1005 19.6865 18.5212 19.7974 18.8921 20.008L19.0751 20.104C19.6349 20.4217 20.3 20.5079 20.9243 20.3436C21.5487 20.1794 22.0813 19.7782 22.4052 19.228L22.6736 18.76C22.9965 18.2093 23.0841 17.555 22.9172 16.9408C22.7502 16.3266 22.3424 15.8027 21.7831 15.484L21.6001 15.388C21.2278 15.1765 20.9189 14.8721 20.7047 14.5054C20.4905 14.1387 20.3786 13.7229 20.3803 13.3V12.7C20.3786 12.2771 20.4905 11.8613 20.7047 11.4946C20.9189 11.1279 21.2278 10.8235 21.6001 10.612L21.7831 10.504C22.3424 10.1853 22.7502 9.6614 22.9172 9.0472C23.0841 8.433 22.9965 7.77872 22.6736 7.228L22.4052 6.772C22.0813 6.22184 21.5487 5.82061 20.9243 5.65637C20.3 5.49213 19.6349 5.57832 19.0751 5.896L18.8921 5.992C18.5212 6.20264 18.1005 6.31354 17.6723 6.31354C17.244 6.31354 16.8233 6.20264 16.4524 5.992L15.9279 5.692C15.5574 5.48156 15.2496 5.17898 15.0355 4.8146C14.8214 4.45023 14.7085 4.03687 14.708 3.616V3.4C14.708 2.76348 14.451 2.15303 13.9935 1.70294C13.5359 1.25286 12.9154 1 12.2684 1Z" stroke="#7B7B7B" stroke-width="2" stroke-linecap="round" stroke-linejoin="round"/>
<path d="M12 16.6C14.0211 16.6 15.6595 14.9882 15.6595 13C15.6595 11.0118 14.0211 9.4 12 9.4C9.9789 9.4 8.34048 11.0118 8.34048 13C8.34048 14.9882 9.9789 16.6 12 16.6Z" stroke="#7B7B7B" stroke-width="2" stroke-linecap="round" stroke-linejoin="round"/>
</svg>
