<svg width="12" height="16" viewBox="0 0 12 16" fill="none" xmlns="http://www.w3.org/2000/svg">
<path d="M7.25 8.7V5.55C7.25 4.5 7.875 4.5 7.875 3.1C7.875 2.54305 7.67746 2.0089 7.32583 1.61508C6.97419 1.22125 6.49728 1 6 1C5.50272 1 5.02581 1.22125 4.67417 1.61508C4.32254 2.0089 4.125 2.54305 4.125 3.1C4.125 4.5 4.75 4.5 4.75 5.55V8.7" fill="#FFCC02" fill-opacity="0.5"/>
<path d="M11 10.45C11 9.98587 10.8354 9.54075 10.5424 9.21256C10.2493 8.88437 9.8519 8.7 9.4375 8.7H2.5625C2.1481 8.7 1.75067 8.88437 1.45765 9.21256C1.16462 9.54075 1 9.98587 1 10.45V11.5C1 11.6857 1.06585 11.8637 1.18306 11.995C1.30027 12.1263 1.45924 12.2 1.625 12.2H10.375C10.5408 12.2 10.6997 12.1263 10.8169 11.995C10.9342 11.8637 11 11.6857 11 11.5V10.45Z" fill="#FFCC02" fill-opacity="0.5"/>
<path d="M1.625 15H10.375H1.625Z" fill="#FFCC02" fill-opacity="0.5"/>
<path d="M7.25 8.7V5.55C7.25 4.5 7.875 4.5 7.875 3.1C7.875 2.54305 7.67746 2.0089 7.32583 1.61508C6.97419 1.22125 6.49728 1 6 1C5.50272 1 5.02581 1.22125 4.67417 1.61508C4.32254 2.0089 4.125 2.54305 4.125 3.1C4.125 4.5 4.75 4.5 4.75 5.55V8.7M1.625 15H10.375M11 10.45C11 9.98587 10.8354 9.54075 10.5424 9.21256C10.2493 8.88437 9.8519 8.7 9.4375 8.7H2.5625C2.1481 8.7 1.75067 8.88437 1.45765 9.21256C1.16462 9.54075 1 9.98587 1 10.45V11.5C1 11.6857 1.06585 11.8637 1.18306 11.995C1.30027 12.1263 1.45924 12.2 1.625 12.2H10.375C10.5408 12.2 10.6997 12.1263 10.8169 11.995C10.9342 11.8637 11 11.6857 11 11.5V10.45Z" stroke="#FFCC02" stroke-linecap="round" stroke-linejoin="round"/>
</svg>
