<svg width="22" height="20" viewBox="0 0 22 20" fill="none" xmlns="http://www.w3.org/2000/svg">
<path d="M3.99749 18.9928H17.9975M10.5595 1.25884C10.6027 1.18045 10.6661 1.11508 10.7431 1.06955C10.8202 1.02402 10.908 1 10.9975 1C11.087 1 11.1748 1.02402 11.2519 1.06955C11.3289 1.11508 11.3923 1.18045 11.4355 1.25884L14.3875 6.86284C14.4579 6.99261 14.5561 7.10517 14.6752 7.19246C14.7943 7.27975 14.9312 7.3396 15.0761 7.3677C15.221 7.39581 15.3704 7.39148 15.5134 7.35502C15.6565 7.31856 15.7897 7.25089 15.9035 7.15684L20.1805 3.49284C20.2626 3.42607 20.3638 3.38706 20.4695 3.38145C20.5751 3.37583 20.6799 3.40389 20.7686 3.46159C20.8573 3.51929 20.9254 3.60365 20.9632 3.70253C21.0009 3.80142 21.0062 3.90972 20.9785 4.01184L18.1445 14.2578C18.0866 14.4675 17.962 14.6526 17.7895 14.7851C17.617 14.9175 17.406 14.9901 17.1885 14.9918H4.80749C4.58983 14.9903 4.3786 14.9178 4.20589 14.7854C4.03317 14.6529 3.90839 14.4677 3.85049 14.2578L1.01749 4.01284C0.989745 3.91072 0.995116 3.80242 1.03284 3.70353C1.07055 3.60465 1.13868 3.52029 1.2274 3.46259C1.31611 3.40489 1.42085 3.37683 1.52653 3.38245C1.63222 3.38806 1.73339 3.42707 1.81549 3.49384L6.09149 7.15784C6.20529 7.25189 6.3385 7.31956 6.48156 7.35602C6.62461 7.39248 6.77397 7.39681 6.91889 7.3687C7.06382 7.3406 7.20073 7.28075 7.31979 7.19346C7.43884 7.10617 7.5371 6.99361 7.60749 6.86384L10.5595 1.25884Z" stroke="black" stroke-width="2" stroke-linecap="round" stroke-linejoin="round"/>
</svg>
