<svg width="18" height="22" viewBox="0 0 18 22" fill="none" xmlns="http://www.w3.org/2000/svg">
<path d="M11 12V7.5C11 6 12 6 12 4C12 3.20435 11.6839 2.44129 11.1213 1.87868C10.5587 1.31607 9.79565 1 9 1C8.20435 1 7.44129 1.31607 6.87868 1.87868C6.31607 2.44129 6 3.20435 6 4C6 6 7 6 7 7.5V12M2 21H16M17 14.5C17 13.837 16.7366 13.2011 16.2678 12.7322C15.7989 12.2634 15.163 12 14.5 12H3.5C2.83696 12 2.20107 12.2634 1.73223 12.7322C1.26339 13.2011 1 13.837 1 14.5V16C1 16.2652 1.10536 16.5196 1.29289 16.7071C1.48043 16.8946 1.73478 17 2 17H16C16.2652 17 16.5196 16.8946 16.7071 16.7071C16.8946 16.5196 17 16.2652 17 16V14.5Z" stroke="black" stroke-width="2" stroke-linecap="round" stroke-linejoin="round"/>
</svg>
