<svg width="22" height="22" viewBox="0 0 22 22" fill="none" xmlns="http://www.w3.org/2000/svg">
<path d="M9.268 20C9.44354 20.304 9.69602 20.5565 10 20.732C10.3041 20.9075 10.6489 20.9999 11 20.9999C11.3511 20.9999 11.6959 20.9075 12 20.732C12.304 20.5565 12.5565 20.304 12.732 20M21 7C21 4.7 20.2 2.7 19 1M3 1C1.8 2.7 1 4.7 1 7M2.262 14.326C2.13136 14.4692 2.04515 14.6472 2.01386 14.8385C1.98256 15.0298 2.00752 15.226 2.08571 15.4034C2.16389 15.5807 2.29194 15.7316 2.45426 15.8375C2.61658 15.9434 2.80618 15.9999 3 16H19C19.1938 16.0001 19.3834 15.9438 19.5459 15.8381C19.7083 15.7324 19.8365 15.5817 19.9149 15.4045C19.9933 15.2273 20.0185 15.0311 19.9874 14.8398C19.9564 14.6485 19.8704 14.4703 19.74 14.327C18.41 12.956 17 11.499 17 7C17 5.4087 16.3679 3.88258 15.2426 2.75736C14.1174 1.63214 12.5913 1 11 1C9.4087 1 7.88258 1.63214 6.75736 2.75736C5.63214 3.88258 5 5.4087 5 7C5 11.499 3.589 12.956 2.262 14.326Z" stroke="black" stroke-width="2" stroke-linecap="round" stroke-linejoin="round"/>
</svg>
