<svg width="14" height="14" viewBox="0 0 14 14" fill="none" xmlns="http://www.w3.org/2000/svg">
<path d="M5.42105 1V2.26316M7.94737 1V2.26316M9.21053 4.78947C9.37803 4.78947 9.53868 4.85601 9.65712 4.97446C9.77556 5.0929 9.8421 5.25355 9.8421 5.42105V10.4737C9.8421 11.1437 9.57594 11.7863 9.10216 12.2601C8.62839 12.7338 7.98581 13 7.31579 13H3.52632C2.8563 13 2.21372 12.7338 1.73994 12.2601C1.26616 11.7863 1 11.1437 1 10.4737V5.42105C1 5.25355 1.06654 5.0929 1.18499 4.97446C1.30343 4.85601 1.46407 4.78947 1.63158 4.78947H10.4737C11.1437 4.78947 11.7863 5.05564 12.2601 5.52941C12.7338 6.00319 13 6.64577 13 7.31579C13 7.98581 12.7338 8.62839 12.2601 9.10216C11.7863 9.57594 11.1437 9.8421 10.4737 9.8421H9.8421M2.89474 1V2.26316" stroke="black" stroke-linecap="round" stroke-linejoin="round"/>
</svg>
