<svg width="48" height="61" viewBox="0 0 48 61" fill="none" xmlns="http://www.w3.org/2000/svg">
<path d="M8.24609 29.573V7.71501C8.76966 5.53603 10.9948 1.01463 15.7069 0.360939C20.4189 -0.292756 31.9373 0.088566 37.1075 0.360939C38.8091 0.292843 42.6442 1.5049 44.3719 6.89789V30.1858L8.24609 29.573Z" fill="#F1A943"/>
<path d="M3.3161 36.7704C-2.49545 33.6654 0.63284 29.7568 2.92343 28.1907H44.743C49.298 31.1323 46.641 35.1362 44.743 36.7704H3.3161Z" fill="#DC882D"/>
<path d="M7.29357 30.8881C10.3703 27.7311 12.9712 30.3232 13.8871 32.0139L8.7942 58.3059C5.99522 60.699 3.26412 58.3879 2.24845 56.9332L7.29357 30.8881Z" fill="#DC882D"/>
<path d="M18.7224 32.5627C21.2791 28.9382 24.2422 31.0683 25.4042 32.5865L24.3823 59.3861C21.9834 62.2107 18.9347 60.3794 17.7102 59.1107L18.7224 32.5627Z" fill="#DC882D"/>
<path d="M29.1606 34.8531C31.351 31.3613 34.5043 32.9293 35.8072 34.1498L37.3934 58.0289C35.2823 60.7941 32.0728 59.5004 30.7319 58.508L29.1606 34.8531Z" fill="#DC882D"/>
<path d="M37.9353 34.5351C39.8699 30.8835 43.1266 32.2031 44.5131 33.3193L47.8023 57.0095C45.8947 59.9304 42.6017 58.8888 41.1936 58.0028L37.9353 34.5351Z" fill="#DC882D"/>
</svg>
