<?xml version="1.0" encoding="UTF-8"?>
<svg id="_레이어_1" data-name="레이어 1" xmlns="http://www.w3.org/2000/svg" viewBox="0 0 186.69 223.04">
  <defs>
    <style>
      .cls-1 {
        fill: #fff;
      }

      .cls-2 {
        fill: #231815;
      }

      .cls-3 {
        fill: #f5ab2f;
      }
    </style>
  </defs>
  <path class="cls-3" d="M130.75,177.74s17.85-8.14,24.1-19.52c0,0,6.45,14.37,24.7,5.98,1.27-.58,19.32-9.06-7.37-42.02,8.46-42.37-6.07-67.87-32.32-82.21-13.55-5.85-14.16-4.05-17.08-5.23,0,0,13.06-12.72,1.99-21.16-11.75-8.96-24.5,10.41-24.5,10.41,0,0-.1-28.73-23.1-23.3-21.51,5.53-2.79,34.06-2.79,34.06-17.58,1.84-52.43,11.4-63.14,51.73-3.14,25.59,3.29,37.34,3.29,37.34,0,0-27.49,28.43-6.87,41.08,16.63,7.57,24.1-8.07,24.1-8.07,0,0,10.66,17.63,23.25,21.36l-.3,28.98s-13.69-3.44-14.34,7.62c-.52,8.94,16.43,8.07,16.43,8.07,0,0,15.59,2.61,17.43-11.9,1.69-13.34.9-27.88.9-27.88,0,0,18.67,4.88,35.9.1l.3,28.68s1.1,11.85,16.88,10.85c17.9-1.13,16.73-5.08,16.73-8.66,0-8.12-11.58-8.37-13.59-7.32l-.6-28.98Z"/>
  <path class="cls-1" d="M31.7,95.27c.32-15.06,13.34-29.07,29.46-28.46,15.46.59,26.86,14.39,27.1,28.46.25,14.82-11.91,29.59-28.28,29.59-16.27,0-28.59-14.59-28.28-29.59Z"/>
  <path class="cls-1" d="M96.55,95.83c0-14.57,11.91-28.93,27.89-29.03,16.1-.1,28.27,14.32,28.28,29.03,0,14.62-12.01,29.03-28.08,29.03-16.08,0-28.08-14.42-28.08-29.03Z"/>
  <path class="cls-2" d="M65.08,81.42c-6.4.4-12.03,5.55-13.35,11.76-1.3,6.14,1.49,13.84,8.25,16.31,5.92,2.17,12.34-.6,15.71-4.58,5.44-6.42,3.7-16.84-2.36-21.22-3.41-2.46-7.25-2.34-8.25-2.28Z"/>
  <path class="cls-2" d="M119.43,81.5c-6.78.92-10.49,4.17-12.67,10.81-1.74,5.33-.06,11.61,4.71,15.18,5.85,4.37,14.37,3.19,19.24-1.54,5.97-5.8,4.05-14.77,0-20.46-2.85-4-10.11-4.14-11.29-3.98Z"/>
</svg>