<svg width="32" height="23" viewBox="0 0 32 23" fill="none" xmlns="http://www.w3.org/2000/svg">
<g clip-path="url(#clip0_592_557)">
<rect width="29" height="22.04" fill="white"/>
<path d="M17.061 28.19C17.061 28.19 19.39 27.1279 20.2055 25.6431C20.2055 25.6431 21.0471 27.518 23.4283 26.4233C23.594 26.3477 25.9491 25.2412 22.4667 20.9407C23.5705 15.4124 21.6747 12.0853 18.2497 10.2142C16.4817 9.45095 16.4021 9.68581 16.0211 9.53185C16.0211 9.53185 17.7251 7.87218 16.2808 6.77096C14.7477 5.60189 13.0841 8.12922 13.0841 8.12922C13.0841 8.12922 13.071 4.38063 10.0701 5.08912C7.26353 5.81065 9.70605 9.53315 9.70605 9.53315C7.41227 9.77323 2.86516 11.0206 1.46776 16.2827C1.05806 19.6216 1.89703 21.1547 1.89703 21.1547C1.89703 21.1547 -1.68978 24.8642 1.00065 26.5147C3.17048 27.5024 4.14514 25.4617 4.14514 25.4617C4.14514 25.4617 5.53602 27.762 7.17872 28.2487L7.13958 32.0299C7.13958 32.0299 5.35335 31.5811 5.26854 33.0242C5.20069 34.1906 7.41227 34.0771 7.41227 34.0771C7.41227 34.0771 9.4464 34.4177 9.68648 32.5244C9.90698 30.7839 9.80391 28.8867 9.80391 28.8867C9.80391 28.8867 12.2399 29.5235 14.488 28.8998L14.5272 32.6419C14.5272 32.6419 14.6707 34.188 16.7296 34.0575C19.0651 33.9101 18.9125 33.3947 18.9125 32.9276C18.9125 31.8681 17.4016 31.8355 17.1393 31.9725L17.061 28.1913V28.19Z" fill="#F5AB2F"/>
<path d="M4.13722 17.4297C4.17897 15.4648 5.87778 13.6368 7.98106 13.7164C9.99823 13.7934 11.4857 15.5939 11.517 17.4297C11.5496 19.3634 9.963 21.2905 7.8271 21.2905C5.70425 21.2905 4.09677 19.3869 4.13722 17.4297Z" fill="white"/>
<path d="M12.5986 17.5026C12.5986 15.6016 14.1526 13.728 16.2376 13.7149C18.3383 13.7019 19.9262 15.5833 19.9275 17.5026C19.9275 19.4102 18.3605 21.2904 16.2637 21.2904C14.1657 21.2904 12.5999 19.4089 12.5999 17.5026H12.5986Z" fill="white"/>
<path d="M8.49257 15.6226C7.65752 15.6748 6.92293 16.3467 6.7507 17.157C6.58108 17.9581 6.94511 18.9628 7.82714 19.2851C8.59956 19.5682 9.43722 19.2068 9.87692 18.6875C10.5867 17.8498 10.3597 16.4902 9.569 15.9188C9.12407 15.5978 8.62304 15.6134 8.49257 15.6213V15.6226Z" fill="#231815"/>
<path d="M15.5838 15.633C14.6991 15.7531 14.2151 16.1771 13.9306 17.0435C13.7036 17.7389 13.9228 18.5583 14.5452 19.0241C15.3084 19.5943 16.4201 19.4403 17.0555 18.8232C17.8345 18.0664 17.584 16.8961 17.0555 16.1536C16.6837 15.6317 15.7364 15.6135 15.5824 15.6343L15.5838 15.633Z" fill="#231815"/>
</g>
<path d="M24.4007 6.63149L26.2005 8.36836Z" fill="url(#paint0_linear_592_557)"/>
<path d="M21.7009 13C22.1162 13 22.5222 12.8812 22.8675 12.6585C23.2128 12.4358 23.4819 12.1194 23.6409 11.7491C23.7998 11.3788 23.8414 10.9714 23.7604 10.5783C23.6793 10.1853 23.4793 9.8242 23.1857 9.54081C22.892 9.25742 22.5179 9.06443 22.1105 8.98625C21.7032 8.90806 21.281 8.94819 20.8973 9.10156C20.5136 9.25493 20.1856 9.51465 19.9549 9.84788C19.7242 10.1811 19.601 10.5729 19.601 10.9737C19.6011 11.359 19.4493 11.7299 19.1763 12.0111C19.0921 12.0921 19.0348 12.1954 19.0116 12.3078C18.9883 12.4203 19.0002 12.5368 19.0457 12.6427C19.0912 12.7487 19.1683 12.8392 19.2671 12.9028C19.366 12.9664 19.4822 13.0002 19.601 13H21.7009Z" fill="url(#paint1_linear_592_557)"/>
<path d="M23.7821 10.7021L30.627 4.09798C30.8658 3.8675 31 3.55491 31 3.22897C31 2.90303 30.8658 2.59043 30.627 2.35996C30.3882 2.12948 30.0642 2 29.7265 2C29.3887 2 29.0648 2.12948 28.8259 2.35996L21.981 8.96526" fill="url(#paint2_linear_592_557)"/>
<path d="M24.4007 6.63149L26.2005 8.36836M23.7821 10.7021L30.627 4.09798C30.8658 3.8675 31 3.55491 31 3.22897C31 2.90303 30.8658 2.59043 30.627 2.35996C30.3882 2.12948 30.0642 2 29.7265 2C29.3887 2 29.0648 2.12948 28.8259 2.35996L21.981 8.96526M21.7009 13C22.1162 13 22.5222 12.8812 22.8675 12.6585C23.2128 12.4358 23.4819 12.1194 23.6409 11.7491C23.7998 11.3788 23.8414 10.9714 23.7604 10.5783C23.6793 10.1853 23.4793 9.8242 23.1857 9.54081C22.892 9.25742 22.5179 9.06443 22.1105 8.98625C21.7032 8.90806 21.281 8.94819 20.8973 9.10156C20.5136 9.25493 20.1856 9.51465 19.9549 9.84788C19.7242 10.1811 19.601 10.5729 19.601 10.9737C19.6011 11.359 19.4493 11.7299 19.1763 12.0111C19.0921 12.0921 19.0348 12.1954 19.0116 12.3078C18.9883 12.4203 19.0002 12.5368 19.0457 12.6427C19.0912 12.7487 19.1683 12.8392 19.2671 12.9028C19.366 12.9664 19.4822 13.0002 19.601 13H21.7009Z" stroke="white" stroke-width="0.8" stroke-linecap="round" stroke-linejoin="round"/>
<defs>
<linearGradient id="paint0_linear_592_557" x1="25" y1="2" x2="25" y2="13" gradientUnits="userSpaceOnUse">
<stop stop-color="#FFB635"/>
<stop offset="1" stop-color="#FFCC02"/>
</linearGradient>
<linearGradient id="paint1_linear_592_557" x1="25" y1="2" x2="25" y2="13" gradientUnits="userSpaceOnUse">
<stop stop-color="#FFB635"/>
<stop offset="1" stop-color="#FFCC02"/>
</linearGradient>
<linearGradient id="paint2_linear_592_557" x1="25" y1="2" x2="25" y2="13" gradientUnits="userSpaceOnUse">
<stop stop-color="#FFB635"/>
<stop offset="1" stop-color="#FFCC02"/>
</linearGradient>
<clipPath id="clip0_592_557">
<rect width="29" height="22.04" fill="white"/>
</clipPath>
</defs>
</svg>
