<svg width="18" height="18" viewBox="0 0 18 18" fill="none" xmlns="http://www.w3.org/2000/svg">
<path d="M13.8758 7.69868C14.6323 7.98074 15.3055 8.449 15.833 9.06018C16.3606 9.67136 16.7256 10.4057 16.8941 11.1953C17.0627 11.985 17.0295 12.8043 16.7976 13.5777C16.5656 14.3511 16.1424 15.0535 15.5671 15.6199C14.9918 16.1864 14.2829 16.5986 13.5061 16.8185C12.7293 17.0384 11.9096 17.0588 11.1228 16.8779C10.336 16.697 9.60747 16.3206 9.00466 15.7835C8.40185 15.2464 7.94418 14.566 7.674 13.8051M5.0012 4.20128H5.80144V7.40256M12.7715 10.5078L13.3317 11.076L11.075 13.3329M10.6029 5.80192C10.6029 8.45395 8.4532 10.6038 5.80144 10.6038C3.14968 10.6038 1 8.45395 1 5.80192C1 3.14989 3.14968 1 5.80144 1C8.4532 1 10.6029 3.14989 10.6029 5.80192Z" stroke="#FFB635" stroke-width="2" stroke-linecap="round" stroke-linejoin="round"/>
</svg>
