<svg width="304" height="566" viewBox="0 0 304 566" fill="none" xmlns="http://www.w3.org/2000/svg">
<path d="M152.388 48.9811C266.98 34.1266 329.83 156.676 351.758 218.216C395.791 297.262 417.542 291.957 423.378 301.507C426.877 307.233 434.623 318.483 434.623 325.91C434.623 334.045 430.591 352.33 410.219 364.638C389.848 376.946 332.41 400.89 306.238 411.323L328.52 477.107C356.698 465.648 366.787 477.638 368.309 485.065C370.431 491.785 367.884 506.922 340.722 513.713C313.559 520.504 301.11 510.884 298.281 505.225L268.572 422.995L201.196 445.276C206.324 460.485 218.597 497.055 226.661 521.671C234.725 546.287 204.556 560.221 188.464 564.112C183.158 566.057 170.214 566.446 160.877 552.441C151.54 538.435 175.378 526.092 188.464 521.671L166.712 456.417C132.936 465.79 59.124 483.049 34.0836 477.107C9.04326 471.166 6.85054 447.752 8.08831 435.197C10.2326 413.445 32.4921 385.858 4.90528 271.798C-17.3765 149.248 41.5106 92.3066 75.9942 75.5069C68.0366 71.2628 44.1634 22.9858 94.0319 2.82622C146.022 -13.0893 155.041 43.1454 152.388 48.9811Z" fill="#FFB635"/>
<circle cx="105.042" cy="251.465" r="56.2347" fill="white"/>
<circle cx="235.549" cy="207.962" r="56.2347" fill="white"/>
<circle cx="113" cy="251.995" r="30.2394" fill="black"/>
<circle cx="229.713" cy="213.798" r="30.2394" fill="black"/>
</svg>
