<svg width="22" height="23" viewBox="0 0 22 23" fill="none" xmlns="http://www.w3.org/2000/svg">
<path d="M14 20.9995V12.9995C14 12.7343 13.8946 12.4799 13.7071 12.2924C13.5196 12.1048 13.2652 11.9995 13 11.9995H9C8.73478 11.9995 8.48043 12.1048 8.29289 12.2924C8.10536 12.4799 8 12.7343 8 12.9995V20.9995H4C3.46957 20.9995 2.96086 20.7888 2.58579 20.4137C2.21071 20.0386 2 19.5299 2 18.9995V9.99948C1.99993 9.70855 2.06333 9.4211 2.18579 9.1572C2.30824 8.89329 2.4868 8.65928 2.709 8.47148L9.709 2.47248C10.07 2.16739 10.5274 2 11 2C11.4726 2 11.93 2.16739 12.291 2.47248L19.291 8.47148C19.5132 8.65928 19.6918 8.89329 19.8142 9.1572C19.9367 9.4211 20.0001 9.70855 20 9.99948V18.9995C20 19.5299 19.7893 20.0386 19.4142 20.4137C19.0391 20.7888 18.5304 20.9995 18 20.9995H14Z" fill="black" stroke="black" stroke-width="3" stroke-linecap="round" stroke-linejoin="round"/>
</svg>
