<svg width="24" height="24" viewBox="0 0 24 24" fill="none" xmlns="http://www.w3.org/2000/svg">
<circle cx="12" cy="12" r="12" fill="#FFB635"/>
<path d="M12 5C13.3044 5 14.5693 5.55237 15.5127 6.55859C16.4581 7.56709 17 8.94812 17 10.4004C16.9999 12.0806 16.1102 13.9069 14.9346 15.5547C13.8968 17.0092 12.717 18.2115 12 18.8906C11.283 18.2115 10.1032 17.0092 9.06543 15.5547C7.88977 13.9069 7.00011 12.0806 7 10.4004C7 8.94812 7.54185 7.56709 8.4873 6.55859C9.3717 5.61529 10.5386 5.07121 11.7559 5.00684L12 5ZM12 7C10.1452 7 8.75 8.58439 8.75 10.4004C8.75016 12.2163 10.1454 13.7998 12 13.7998C13.8546 13.7998 15.2498 12.2163 15.25 10.4004C15.25 8.58439 13.8548 7 12 7Z" fill="white" stroke="white" stroke-width="2" stroke-linecap="round" stroke-linejoin="round"/>
</svg>
