<svg width="16" height="16" viewBox="0 0 16 16" fill="none" xmlns="http://www.w3.org/2000/svg">
<path d="M10.3333 3.01896C10.092 3.01896 9.85391 2.96128 9.638 2.85049L6.362 1.16847C6.14609 1.05768 5.90803 1 5.66667 1M10.3333 3.01896C10.5747 3.01896 10.8128 2.96128 11.0287 2.85049L13.8746 1.3889C13.9932 1.32801 14.1251 1.2993 14.2576 1.3055C14.3901 1.31169 14.5189 1.35259 14.6317 1.42431C14.7445 1.49603 14.8375 1.59617 14.902 1.71523C14.9665 1.83429 15.0002 1.9683 15 2.10452V12.2989C14.9999 12.4472 14.9596 12.5925 14.8837 12.7186C14.8077 12.8447 14.6991 12.9466 14.5699 13.0129L11.0287 14.8315C10.8128 14.9423 10.5747 15 10.3333 15M10.3333 3.01896V15M10.3333 15C10.092 15 9.85391 14.9423 9.638 14.8315L6.362 13.1495C6.14609 13.0387 5.90803 12.981 5.66667 12.981C5.4253 12.981 5.18725 13.0387 4.97133 13.1495L2.12545 14.6111C2.00672 14.672 1.87479 14.7007 1.7422 14.6945C1.60962 14.6883 1.48079 14.6473 1.36798 14.5755C1.25517 14.5037 1.16214 14.4034 1.09773 14.2842C1.03332 14.1651 0.999675 14.031 1 13.8947V3.70109C1.00008 3.55281 1.04036 3.40747 1.11632 3.28136C1.19229 3.15525 1.30094 3.05335 1.43011 2.98707L4.97133 1.16847C5.18725 1.05768 5.4253 1 5.66667 1M5.66667 1V12.9802" stroke="#7B7B7B" stroke-linecap="round" stroke-linejoin="round"/>
</svg>
