<svg width="20" height="21" viewBox="0 0 20 21" fill="none" xmlns="http://www.w3.org/2000/svg">
<path d="M4 12C4 14.5964 4.84213 17.1228 6.4 19.2C6.71826 19.6243 7.19206 19.9049 7.71716 19.9799C8.24226 20.0549 8.77565 19.9183 9.2 19.6C9.62435 19.2817 9.90488 18.8079 9.9799 18.2828C10.0549 17.7577 9.91826 17.2243 9.6 16.8C8.56142 15.4152 8 13.731 8 12M6 4V12M9 4C12.0414 4.07835 15.0139 3.0875 17.4 1.2C17.5486 1.08857 17.7252 1.02072 17.9102 1.00404C18.0952 0.987363 18.2811 1.02252 18.4472 1.10557C18.6133 1.18863 18.753 1.31629 18.8507 1.47427C18.9483 1.63225 19 1.81429 19 2V14C19 14.1857 18.9483 14.3678 18.8507 14.5257C18.753 14.6837 18.6133 14.8114 18.4472 14.8944C18.2811 14.9775 18.0952 15.0126 17.9102 14.996C17.7252 14.9793 17.5486 14.9114 17.4 14.8C15.0139 12.9125 12.0414 11.9217 9 12H3C2.46957 12 1.96086 11.7893 1.58579 11.4142C1.21071 11.0391 1 10.5304 1 10V6C1 5.46957 1.21071 4.96086 1.58579 4.58579C1.96086 4.21071 2.46957 4 3 4H9Z" stroke="black" stroke-width="2" stroke-linecap="round" stroke-linejoin="round"/>
</svg>
