<svg width="22" height="20" viewBox="0 0 22 20" fill="none" xmlns="http://www.w3.org/2000/svg">
<path d="M14 9.99994H9M14 5.99994H9M18 14.9999V2.99994C18 2.46951 17.7893 1.9608 17.4142 1.58573C17.0391 1.21065 16.5304 0.999939 16 0.999939H3M3 0.999939C3.53043 0.999939 4.03914 1.21065 4.41421 1.58573C4.78929 1.9608 5 2.46951 5 2.99994V16.9999C5 17.5304 5.21071 18.0391 5.58579 18.4142C5.96086 18.7892 6.46957 18.9999 7 18.9999M3 0.999939C2.46957 0.999939 1.96086 1.21065 1.58579 1.58573C1.21071 1.9608 1 2.46951 1 2.99994V4.99994C1 5.26516 1.10536 5.51951 1.29289 5.70705C1.48043 5.89458 1.73478 5.99994 2 5.99994H5M7 18.9999H19C19.5304 18.9999 20.0391 18.7892 20.4142 18.4142C20.7893 18.0391 21 17.5304 21 16.9999V15.9999C21 15.7347 20.8946 15.4804 20.7071 15.2928C20.5196 15.1053 20.2652 14.9999 20 14.9999H10C9.73478 14.9999 9.48043 15.1053 9.29289 15.2928C9.10536 15.4804 9 15.7347 9 15.9999V16.9999C9 17.5304 8.78929 18.0391 8.41421 18.4142C8.03914 18.7892 7.53043 18.9999 7 18.9999Z" stroke="black" stroke-width="2" stroke-linecap="round" stroke-linejoin="round"/>
</svg>
