<svg width="16" height="16" viewBox="0 0 16 16" fill="none" xmlns="http://www.w3.org/2000/svg">
<path d="M7.66816 1.21647C7.69883 1.15148 7.74622 1.09677 7.80496 1.05852C7.86371 1.02027 7.93148 1 8.00063 1C8.06978 1 8.13755 1.02027 8.19629 1.05852C8.25504 1.09677 8.30242 1.15148 8.3331 1.21647L9.94995 4.65113C10.0565 4.87719 10.2137 5.07277 10.4081 5.22109C10.6026 5.3694 10.8285 5.46601 11.0664 5.50263L14.6822 6.05758C14.7507 6.06799 14.8151 6.0983 14.8681 6.14508C14.921 6.19186 14.9604 6.25324 14.9818 6.32229C15.0032 6.39133 15.0058 6.46528 14.9892 6.53577C14.9726 6.60626 14.9376 6.67048 14.888 6.72117L12.273 9.39167C12.1006 9.56792 11.9716 9.78548 11.8971 10.0256C11.8226 10.2658 11.8048 10.5213 11.8454 10.7702L12.4627 14.5433C12.4748 14.6151 12.4674 14.689 12.4414 14.7567C12.4153 14.8243 12.3717 14.8829 12.3154 14.9257C12.2592 14.9686 12.1925 14.994 12.1232 14.9991C12.0538 15.0041 11.9845 14.9886 11.9231 14.9544L8.69077 13.1721C8.47779 13.0548 8.24083 12.9935 8.00028 12.9935C7.75972 12.9935 7.52277 13.0548 7.30979 13.1721L4.07818 14.9544C4.01682 14.9884 3.94757 15.0038 3.87832 14.9986C3.80906 14.9934 3.74258 14.968 3.68642 14.9252C3.63027 14.8823 3.58671 14.8238 3.56069 14.7563C3.53467 14.6888 3.52723 14.615 3.53923 14.5433L4.15587 10.771C4.19661 10.5219 4.17896 10.2662 4.10446 10.0259C4.02995 9.78564 3.90082 9.56796 3.72821 9.39167L1.11325 6.7219C1.06327 6.67128 1.02785 6.60695 1.01103 6.53624C0.994212 6.46553 0.996666 6.3913 1.01811 6.32198C1.03956 6.25267 1.07914 6.19106 1.13234 6.14419C1.18554 6.09731 1.25023 6.06705 1.31903 6.05685L4.9342 5.50263C5.17236 5.4663 5.39854 5.36981 5.59325 5.22148C5.78797 5.07315 5.94541 4.87741 6.052 4.65113L7.66816 1.21647Z" fill="#FFB635" stroke="#FFB635" stroke-width="1.5" stroke-linecap="round" stroke-linejoin="round"/>
</svg>
