<svg width="21" height="22" viewBox="0 0 21 22" fill="none" xmlns="http://www.w3.org/2000/svg">
<path d="M14 13V15.2L15.6 16.2M14 1V5M19 6.5V5C19 4.46957 18.7893 3.96086 18.4142 3.58579C18.0391 3.21071 17.5304 3 17 3H3C2.46957 3 1.96086 3.21071 1.58579 3.58579C1.21071 3.96086 1 4.46957 1 5V19C1 19.5304 1.21071 20.0391 1.58579 20.4142C1.96086 20.7893 2.46957 21 3 21H6.5M1 9H6M6 1V5M20 15C20 18.3137 17.3137 21 14 21C10.6863 21 8 18.3137 8 15C8 11.6863 10.6863 9 14 9C17.3137 9 20 11.6863 20 15Z" stroke="black" stroke-width="2" stroke-linecap="round" stroke-linejoin="round"/>
</svg>
