<svg width="22" height="21" viewBox="0 0 22 21" fill="none" xmlns="http://www.w3.org/2000/svg">
<path d="M17 20.0004V9.00039C17 8.73517 16.8946 8.48082 16.7071 8.29328C16.5196 8.10574 16.2652 8.00039 16 8.00039H6C5.73478 8.00039 5.48043 8.10574 5.29289 8.29328C5.10536 8.48082 5 8.73517 5 9.00039V20.0004M5 12.0004H17M5 16.0004H17M21 18.0004C21 18.5308 20.7893 19.0395 20.4142 19.4146C20.0391 19.7897 19.5304 20.0004 19 20.0004H3C2.46957 20.0004 1.96086 19.7897 1.58579 19.4146C1.21071 19.0395 1 18.5308 1 18.0004V7.00039C0.999779 6.62376 1.10591 6.25472 1.30617 5.93575C1.50643 5.61678 1.79269 5.36084 2.132 5.19739L10.082 1.22339C10.3659 1.0766 10.6809 1 11.0005 1C11.3201 1 11.6351 1.0766 11.919 1.22339L19.867 5.19739C20.2065 5.3607 20.493 5.61658 20.6934 5.93556C20.8939 6.25454 21.0001 6.62365 21 7.00039V18.0004Z" stroke="black" stroke-width="2" stroke-linecap="round" stroke-linejoin="round"/>
</svg>
