<svg width="15" height="14" viewBox="0 0 15 14" fill="none" xmlns="http://www.w3.org/2000/svg">
<path d="M7.21492 1.17263C7.24298 1.12035 7.2842 1.07675 7.33429 1.04638C7.38438 1.01602 7.44149 1 7.49968 1C7.55786 1 7.61497 1.01602 7.66506 1.04638C7.71515 1.07675 7.75637 1.12035 7.78443 1.17263L9.70362 4.91012C9.74938 4.99666 9.81326 5.07173 9.89067 5.12995C9.96807 5.18817 10.0571 5.22808 10.1513 5.24682C10.2455 5.26557 10.3426 5.26268 10.4356 5.23837C10.5286 5.21405 10.6152 5.16891 10.6892 5.10619L13.4698 2.66256C13.5232 2.61802 13.589 2.59201 13.6577 2.58826C13.7264 2.58452 13.7945 2.60323 13.8522 2.64171C13.9098 2.6802 13.9541 2.73646 13.9787 2.80241C14.0032 2.86835 14.0067 2.94058 13.9886 3.00869L12.1462 9.84208C12.1085 9.98191 12.0275 10.1054 11.9154 10.1937C11.8032 10.282 11.666 10.3304 11.5246 10.3316H3.47537C3.33386 10.3306 3.19653 10.2822 3.08424 10.1939C2.97195 10.1055 2.89083 9.98202 2.85319 9.84208L1.01137 3.00936C0.993333 2.94125 0.996825 2.86902 1.02135 2.80307C1.04587 2.73713 1.09016 2.68086 1.14784 2.64238C1.20552 2.6039 1.27361 2.58518 1.34232 2.58893C1.41102 2.59267 1.4768 2.61869 1.53018 2.66322L4.31014 5.10686C4.38412 5.16958 4.47072 5.21472 4.56373 5.23903C4.65673 5.26335 4.75383 5.26624 4.84805 5.24749C4.94228 5.22875 5.03128 5.18883 5.10869 5.13062C5.18609 5.0724 5.24997 4.99733 5.29573 4.91078L7.21492 1.17263Z" fill="#FFB635"/>
<path d="M2.94876 13H12.0506H2.94876Z" fill="#FFB635"/>
<path d="M2.94876 13H12.0506M7.21492 1.17263C7.24298 1.12035 7.2842 1.07675 7.33429 1.04638C7.38438 1.01602 7.44149 1 7.49968 1C7.55786 1 7.61497 1.01602 7.66506 1.04638C7.71515 1.07675 7.75637 1.12035 7.78443 1.17263L9.70362 4.91012C9.74938 4.99666 9.81326 5.07173 9.89066 5.12995C9.96807 5.18817 10.0571 5.22808 10.1513 5.24682C10.2455 5.26557 10.3426 5.26268 10.4356 5.23837C10.5286 5.21405 10.6152 5.16891 10.6892 5.1062L13.4698 2.66256C13.5232 2.61802 13.589 2.59201 13.6577 2.58826C13.7264 2.58452 13.7945 2.60323 13.8522 2.64171C13.9098 2.6802 13.9541 2.73646 13.9787 2.80241C14.0032 2.86835 14.0067 2.94058 13.9886 3.00869L12.1462 9.84208C12.1085 9.98191 12.0275 10.1054 11.9154 10.1937C11.8032 10.282 11.666 10.3304 11.5246 10.3316H3.47537C3.33386 10.3306 3.19653 10.2822 3.08424 10.1939C2.97195 10.1055 2.89083 9.98202 2.85319 9.84208L1.01137 3.00936C0.993333 2.94125 0.996825 2.86902 1.02135 2.80307C1.04587 2.73713 1.09016 2.68086 1.14784 2.64238C1.20552 2.6039 1.27361 2.58518 1.34232 2.58893C1.41102 2.59267 1.4768 2.61869 1.53018 2.66322L4.31014 5.10686C4.38412 5.16958 4.47072 5.21472 4.56373 5.23903C4.65673 5.26335 4.75383 5.26624 4.84805 5.24749C4.94227 5.22875 5.03128 5.18883 5.10869 5.13062C5.18609 5.0724 5.24997 4.99733 5.29573 4.91078L7.21492 1.17263Z" stroke="black" stroke-width="2" stroke-linecap="round" stroke-linejoin="round"/>
</svg>
