<svg width="20" height="22" viewBox="0 0 20 22" fill="none" xmlns="http://www.w3.org/2000/svg">
<path d="M16.43 11.9351C16.787 10.9681 17 9.98011 17 9.0001C17 6.87834 16.1571 4.84348 14.6569 3.34318C13.1566 1.84287 11.1217 1 9 1C6.87827 1 4.84344 1.84287 3.34315 3.34318C1.84285 4.84348 1 6.87834 1 9.0001C1 13.9932 6.539 19.1932 8.399 20.7992C8.57228 20.9295 8.7832 21 9 21C9.2168 21 9.42772 20.9295 9.601 20.7992C9.87609 20.5612 10.1471 20.3185 10.414 20.0712M13 17.0002L15 19.0002L19 15.0002M12 9.0001C12 10.657 10.6569 12.0001 9 12.0001C7.34315 12.0001 6 10.657 6 9.0001C6 7.34323 7.34315 6.00006 9 6.00006C10.6569 6.00006 12 7.34323 12 9.0001Z" stroke="black" stroke-width="2" stroke-linecap="round" stroke-linejoin="round"/>
</svg>
